<?xml version="1.0" encoding="utf-8"?>
<!-- Generator: Adobe Illustrator 27.9.4, SVG Export Plug-In . SVG Version: 9.03 Build 54784)  -->
<svg version="1.1" id="Layer_1" xmlns="http://www.w3.org/2000/svg" xmlns:xlink="http://www.w3.org/1999/xlink" x="0px" y="0px"
	 viewBox="0 0 288 288" style="enable-background:new 0 0 288 288;" xml:space="preserve">
<style type="text/css">
	.st0{fill:#FFFFFF;}
	.st1{fill:#1D1D1D;}
	.st2{fill:#C6C5C6;}
	.st3{fill:#484848;}
	.st4{fill:#EFEFEE;}
	.st5{fill:#D9DAD9;}
	.st6{fill:#B0B0B0;}
	.st7{fill:#F4F3F4;}
	.st8{fill:#E5E5E4;}
	.st9{fill:#4D4D4D;}
	.st10{fill:#0E0E0E;}
	.st11{fill:#0F161B;}
	.st12{fill:#4C4D4D;}
	.st13{fill:#0D0D0D;}
</style>
<g>
	<path class="st1" d="M25.48,204.11c77.17,0,154.35,0,231.52-0.03c1.16,0,1.45,0.27,1.45,1.44c-0.04,16.65-0.03,33.31-0.03,49.96
		c-6.85,0-13.7,0-20.55,0c0-6.51-0.02-13.01,0.02-19.52c0-0.83-0.2-1.09-1.05-1.05c-1.58,0.07-3.17,0.09-4.75,0
		c-0.97-0.06-1.19,0.23-1.18,1.19c0.05,6.46,0.02,12.92,0.02,19.39c-52.48,0-104.96,0-157.44,0c0-11-0.01-21.99,0.02-32.99
		c0-0.95-0.21-1.21-1.18-1.2c-3.81,0.06-7.62,0.07-11.42,0c-1.08-0.02-1.32,0.27-1.31,1.33c0.04,10.95,0.03,21.91,0.03,32.86
		c-6.85,0-13.7,0-20.55,0c0-11-0.01-22,0.02-33c0-0.96-0.22-1.2-1.18-1.18c-4.15,0.06-8.3,0.03-12.45,0.03
		C25.48,215.58,25.48,209.84,25.48,204.11z M159,217.7c0.81,0.01,1.63-0.02,2.44,0.03c0.74,0.04,0.96-0.28,0.95-0.98
		c-0.03-2.01-0.01-4.02-0.01-6.03c0-3.34,0-3.34-3.37-3.26c-1.11,0.01-2.21,0.02-3.32,0.02c-11.21-0.01-22.42-0.02-33.63-0.06
		c-0.94,0-0.77,0.52-0.77,1.05c0,7.23,0.03,14.46-0.03,21.7c-0.01,1.16,0.28,1.46,1.44,1.45c8.34-0.05,16.69-0.02,25.03-0.05
		c0.83,0,1.1,0.2,1.06,1.05c-0.07,1.45-0.1,2.91,0.01,4.36c0.08,1.08-0.25,1.32-1.31,1.32c-8.39-0.05-16.77-0.02-25.16-0.05
		c-0.83,0-1.07,0.2-1.05,1.05c0.05,3.42,0.02,6.85,0.02,10.27c0,2.57,0,2.57,2.57,2.57c10.61-0.01,21.22-0.03,31.83-0.04
		c1.11,0.01,2.21,0.01,3.32,0.02c0.6,0.01,1.21-0.06,1.79,0.03c1.34,0.2,1.62-0.35,1.61-1.63c-0.06-8.64-0.03-17.28-0.03-25.92
		c0-3.35,0-3.35-3.37-3.27c-1.11,0.01-2.21,0.01-3.32,0.02c-0.77-0.01-1.54-0.03-2.31-0.03c-6.07-0.02-12.15-0.03-18.22-0.04
		c0-1.17,0-2.34,0-3.52c0.51-0.01,1.02-0.04,1.54-0.04c6.33-0.02,12.66-0.03,18.99-0.04C156.79,217.69,157.9,217.69,159,217.7z
		 M110.97,217.7c0.9,0.01,1.8-0.02,2.69,0.03c0.74,0.04,0.96-0.27,0.95-0.98c-0.03-1.92-0.01-3.85-0.01-5.77c0-3.6,0-3.6-3.63-3.51
		c-1.11,0.01-2.21,0.01-3.32,0.02c-10.01-0.01-20.02-0.01-30.04-0.06c-0.95,0-0.77,0.53-0.77,1.06c0,7.7,0,15.41,0,23.11
		c0,6.51,0,13.01,0,19.52c0,0.52-0.18,1.06,0.77,1.06c10.01-0.05,20.02-0.05,30.04-0.06c1.11,0.01,2.22,0.02,3.33,0.03
		c0.85,0,1.71-0.04,2.56,0.03c0.87,0.06,1.08-0.31,1.07-1.12c-0.04-3.08-0.01-6.15-0.01-9.23c0-3.6,0-3.6-3.63-3.51
		c-1.11,0.01-2.21,0.01-3.32,0.02c-0.51-0.01-1.02-0.04-1.54-0.04c-5.22-0.02-10.43-0.03-15.65-0.04c0-6.82,0-13.64,0-20.47
		c0.51-0.01,1.02-0.04,1.54-0.04c5.22-0.02,10.43-0.03,15.65-0.04C108.76,217.69,109.87,217.69,110.97,217.7z M203.43,207.46
		c-1.11,0.01-2.21,0.01-3.32,0.02c-10.01-0.01-20.02-0.01-30.04-0.06c-0.95,0-0.77,0.53-0.77,1.06c0,7.75,0,15.49,0,23.24
		c0,6.46,0,12.92,0,19.39c0,0.52-0.18,1.06,0.77,1.06c10.01-0.05,20.02-0.05,30.04-0.06c1.11,0.01,2.22,0.02,3.33,0.03
		c0.85,0,1.71-0.04,2.56,0.03c0.87,0.06,1.08-0.31,1.07-1.12c-0.04-3.08-0.01-6.15-0.01-9.23c0-3.6,0-3.6-3.63-3.51
		c-1.11,0.01-2.21,0.01-3.32,0.02c-0.51-0.01-1.02-0.04-1.54-0.04c-5.22-0.02-10.43-0.03-15.65-0.04c0-6.82,0-13.64,0-20.47
		c0.51-0.01,1.02-0.04,1.54-0.04c5.22-0.02,10.43-0.03,15.65-0.04c1.11,0.01,2.21,0.01,3.32,0.02c0.9,0.01,1.8-0.02,2.69,0.03
		c0.74,0.04,0.96-0.27,0.95-0.98c-0.03-1.92-0.01-3.85-0.01-5.77C207.06,207.38,207.06,207.38,203.43,207.46z M223.99,252.12
		c0.73,0,1.46-0.06,2.18,0.03c1.24,0.17,1.47-0.39,1.46-1.52c-0.05-6.34-0.02-12.67-0.01-19.01c4.15-0.01,8.3,0.01,12.44-0.07
		c0.96-0.02,1.19,0.22,1.18,1.18c-0.05,6.12-0.01,12.23-0.04,18.35c0,0.82,0.19,1.09,1.04,1.06c1.96-0.08,3.93-0.05,5.9-0.06
		c1.11,0.01,2.21,0.01,3.32,0.02c0.56,0.01,1.11,0.02,1.67,0.02c1.7,0,1.7,0,1.7-1.74c0-13.22,0-26.44,0-39.67
		c0-3.34,0-3.34-3.37-3.27c-1.11,0.01-2.21,0.01-3.32,0.02c-11.21-0.01-22.42-0.02-33.63-0.06c-0.94,0-0.77,0.52-0.77,1.05
		c0,7.45,0,14.89,0,22.34c0,6.76,0.01,13.52-0.02,20.28c0,0.82,0.18,1.1,1.04,1.06c1.96-0.08,3.93-0.05,5.9-0.06
		C221.77,252.11,222.88,252.12,223.99,252.12z M52.93,252.12c0.6,0.01,1.2-0.05,1.79,0.04c1.32,0.2,1.62-0.33,1.62-1.61
		c-0.05-10.93-0.02-21.85-0.02-32.78c3.41-0.02,6.82-0.04,10.23-0.06c0.81,0.01,1.63-0.02,2.44,0.03c0.74,0.04,0.96-0.28,0.95-0.98
		c-0.03-2.01-0.01-4.02-0.01-6.03c0-3.34,0-3.34-3.37-3.26c-1.11,0.01-2.21,0.02-3.32,0.02c-11.21-0.01-22.42-0.02-33.63-0.06
		c-0.77,0-0.79,0.33-0.79,0.92c0.02,2.78,0.04,5.56-0.01,8.34c-0.02,0.84,0.21,1.06,1.05,1.05c3.72-0.05,7.44-0.02,11.17-0.02
		c1.67,0,1.67,0,1.67,1.67c0,10.53,0.01,21.05-0.02,31.58c0,0.94,0.2,1.24,1.17,1.19c1.83-0.1,3.68-0.05,5.51-0.06
		C50.55,252.11,51.74,252.11,52.93,252.12z M106,234.93c3.64,0,7.28-0.03,10.91,0.02c0.84,0.01,1.06-0.22,1.05-1.05
		c-0.05-3.85-0.05-7.7,0-11.56c0.01-0.85-0.23-1.05-1.06-1.04c-7.27,0.03-14.55,0.03-21.82,0c-0.85,0-1.05,0.23-1.04,1.06
		c0.04,3.85,0.05,7.7,0,11.56c-0.01,0.85,0.23,1.05,1.05,1.04C98.73,234.9,102.36,234.93,106,234.93z M198.45,234.93
		c3.64,0,7.28-0.03,10.91,0.02c0.83,0.01,1.07-0.19,1.06-1.04c-0.05-3.85-0.05-7.7,0-11.56c0.01-0.84-0.21-1.06-1.05-1.05
		c-7.27,0.03-14.55,0.03-21.82,0c-0.83,0-1.06,0.21-1.05,1.05c0.05,3.85,0.05,7.7,0,11.56c-0.01,0.83,0.2,1.06,1.04,1.05
		C191.17,234.9,194.81,234.93,198.45,234.93z"/>
	<path class="st1" d="M153.9,190.49c-32.06,0-64.12-0.01-96.18,0.03c-1.17,0-1.5-0.28-1.44-1.45c0.1-2.16,0.03-2.23-2.17-2.15
		c-1,0.04-1.17-0.27-1.17-1.2c0.03-17.38,0.01-34.76,0.05-52.14c0-1.21-0.35-1.43-1.47-1.42c-5.95,0.05-11.9,0.01-17.85,0.04
		c-0.92,0.01-1.34-0.1-1.29-1.2c0.1-2.15,0.02-2.22-2.19-2.13c-1.08,0.04-1.41-0.19-1.41-1.36c0.04-23.07,0.04-46.15,0-69.22
		c0-1.12,0.23-1.48,1.38-1.39c1.58,0.11,3.17-0.01,4.75,0.04c0.69,0.02,0.86-0.21,0.85-0.86c-0.01-0.88-0.42-2.13,0.17-2.56
		c0.62-0.46,1.79-0.17,2.72-0.18c1.03-0.02,2.06-0.07,3.08,0.02c0.84,0.07,0.99-0.26,0.96-1.01c-0.06-1.58,0.01-3.17-0.03-4.75
		c-0.02-0.68,0.1-0.96,0.88-0.96c2.45-0.01,2.5-0.05,2.45-2.52c-0.02-0.97,0.33-1.08,1.16-1.07c3.81,0.04,7.62,0,11.43,0.04
		c0.81,0.01,1.11-0.16,1.07-1.04c-0.08-1.62,0-3.25-0.03-4.88c-0.01-0.61,0.17-0.8,0.79-0.8c0.92-0.01,2.15,0.43,2.68-0.21
		c0.45-0.54,0.17-1.72,0.13-2.61c-0.03-0.65,0.22-0.83,0.81-0.76c0.21,0.03,0.43,0,0.64,0c50.38,0,100.76,0.01,151.14-0.04
		c1.35,0,1.55,0.38,1.55,1.61c-0.04,29.75-0.03,59.5-0.03,89.26c0,1.64,0,1.64,1.7,1.64c2.4,0,4.8,0.06,7.19-0.03
		c1.07-0.04,1.42,0.17,1.41,1.35c-0.06,8.3-0.02,16.61-0.05,24.91c0,0.95,0.16,1.34,1.22,1.27c1.53-0.1,3.08,0,4.62-0.04
		c0.64-0.02,0.87,0.12,0.88,0.83c0.04,2.48,0.07,2.52,2.6,2.5c0.78,0,1.01,0.17,0.99,0.98c-0.06,2.78,0.01,5.57-0.04,8.35
		c-0.02,0.8,0.2,1,0.99,0.99c2.36-0.02,2.43,0.02,2.34,2.36c-0.04,1.04,0.3,1.38,1.27,1.21c0.08-0.01,0.17,0,0.26,0
		c1.84,0,1.94,0.01,1.81,1.88c-0.09,1.31,0.37,1.67,1.55,1.46c0.04-0.01,0.09,0,0.13,0c1.95,0,2.05,0.01,1.91,1.91
		c-0.1,1.34,0.41,1.52,1.57,1.46c1.81-0.1,1.81-0.03,1.81,1.77c0,3.6-0.05,7.19,0.03,10.79c0.02,1.07-0.24,1.32-1.31,1.32
		C218.1,190.49,186,190.49,153.9,190.49z M210.39,152.69c3.03,0.01,6.07-0.01,9.1,0.07c0.95,0.02,1.21-0.21,1.2-1.19
		c-0.05-5.39-0.02-10.77-0.02-16.16c0-3.36,0-3.36-3.35-3.18c-0.3-0.01-0.6-0.04-0.89-0.04c-22.26,0-44.52,0-66.78,0
		c-0.3,0-0.6,0.03-0.89,0.04c-0.17-0.01-0.34-0.04-0.51-0.04c-18.91,0-37.82,0.01-56.74-0.03c-0.99,0-1.07,0.38-1.06,1.18
		c0.03,5.99,0.05,11.98-0.02,17.97c-0.01,1.19,0.32,1.44,1.47,1.44c23.02-0.03,46.04-0.03,69.06-0.03c0.47,0,0.94-0.03,1.41-0.04
		c0.47,0.01,0.94,0.04,1.41,0.04c11.66,0,23.31,0.01,34.97,0C202.62,152.73,206.51,152.71,210.39,152.69z M210.39,159.71
		c-4.48-0.01-8.95-0.04-13.43-0.04c-6.91,0-13.82,0.03-20.72,0.04c-0.51-0.01-1.03-0.04-1.54-0.04c-27.43,0-54.86,0-82.29,0
		c-0.39,0-0.77,0.03-1.15-0.01c-0.61-0.06-0.82,0.16-0.8,0.79c0.04,1.2,0.01,2.4,0.01,3.59c0,2.3,0,2.34,2.33,2.29
		c0.93-0.02,1.33,0.13,1.29,1.21c-0.09,2.36-0.02,2.4,2.34,2.38c0.8-0.01,1,0.21,0.99,1c-0.02,2.32,0.02,2.32,2.38,2.37
		c0.09,0,0.17,0.01,0.26-0.01c0.59-0.09,0.69,0.22,0.7,0.74c0.02,0.84-0.41,1.98,0.18,2.44c0.54,0.42,1.63,0.19,2.48,0.15
		c0.71-0.04,0.96,0.17,0.93,0.91c-0.06,1.54,0.07,3.09-0.04,4.62c-0.09,1.2,0.31,1.45,1.46,1.45c27.52-0.03,55.03-0.03,82.55-0.03
		c0.51,0,1.02-0.03,1.54-0.04c1.02,0.01,2.05,0.04,3.07,0.04c10.36-0.01,20.73-0.03,31.09-0.04c3.59,0.01,7.18,0.03,10.78,0.04
		c2.95,0.01,5.9,0.01,8.85,0c0.38,0,0.82,0.17,0.94-0.53c0.39-2.36,0.08-2.83-2.24-2.79c-0.9,0.02-1.15-0.22-1.13-1.13
		c0.05-2.42,0-2.45-2.39-2.47c-0.72-0.01-0.94-0.18-0.94-0.92c-0.03-2.41-0.06-2.45-2.45-2.41c-0.88,0.01-1.17-0.2-1.15-1.12
		c0.05-2.21,0-2.25-2.25-2.22c-0.81,0.01-1.1-0.17-1.08-1.05c0.06-2.78,0.01-5.56,0.03-8.34c0-0.59-0.05-0.93-0.8-0.92
		C223.57,159.69,216.98,159.7,210.39,159.71z M203.46,39.76c-0.3-0.01-0.6-0.04-0.89-0.04c-21.06,0-42.12,0-63.19,0
		c-0.3,0-0.6,0.03-0.89,0.04c-0.34-0.01-0.68-0.04-1.02-0.04c-15.23,0-30.47,0.01-45.7-0.03c-1.07,0-1.32,0.26-1.32,1.33
		c0.03,27.65,0.03,55.3,0,82.95c0,1.07,0.26,1.32,1.32,1.32c15.79-0.04,31.58-0.02,47.37-0.03c2.1,0,4.19-0.03,6.29-0.04
		c0.47,0.01,0.94,0.04,1.41,0.04c14.82,0,29.63,0,44.45,0c1.84,0,3.67-0.03,5.51-0.04c4.06,0.01,8.13-0.02,12.19,0.07
		c1.17,0.03,1.46-0.29,1.45-1.46c-0.03-27.56-0.03-55.11-0.03-82.67c0-0.21-0.02-0.43,0-0.64c0.08-0.61-0.17-0.82-0.79-0.8
		C207.56,39.75,205.51,39.74,203.46,39.76z M90.48,176.59c-0.01-0.81-0.05-1.63,0-2.44c0.04-0.64-0.11-0.97-0.83-0.88
		c-0.38,0.05-0.78-0.04-1.15,0.02c-1.08,0.17-1.47-0.17-1.41-1.34c0.12-2,0.03-2-1.95-2c-0.04,0-0.09-0.01-0.13,0
		c-1,0.19-1.26-0.22-1.25-1.22c0.04-11.76,0.01-23.53,0.05-35.29c0-0.96-0.19-1.28-1.22-1.27c-7.23,0.05-14.46,0.06-21.69,0
		c-1.13-0.01-1.28,0.35-1.28,1.35c0.03,16.04,0.02,32.08,0.02,48.13c0,1.92,0,1.92,1.94,1.92c9.62-0.01,19.25-0.03,28.87-0.04
		c2.05,0.01,4.09,0.03,6.14,0.04c0.35,0,0.72,0.13,0.82-0.49c0.39-2.4,0.08-2.81-2.31-2.85c-0.09,0-0.17-0.01-0.26,0
		c-0.6,0.09-0.8-0.14-0.81-0.76c-0.01-0.92,0.44-2.18-0.2-2.67c-0.59-0.46-1.79-0.14-2.72-0.16
		C90.9,176.62,90.69,176.6,90.48,176.59z M83.78,82.49c0-13.87-0.01-27.73,0.02-41.6c0-0.93-0.18-1.21-1.17-1.2
		c-5.01,0.06-10.01,0.04-15.02,0.01c-0.82-0.01-1.09,0.18-1.07,1.04c0.06,2.69-0.02,5.39,0.05,8.09c0.02,0.95-0.21,1.2-1.18,1.19
		c-5.01-0.06-10.01-0.01-15.02-0.04c-0.83-0.01-1.07,0.2-1.05,1.05c0.06,2.74-0.01,5.48,0.04,8.22c0.02,0.85-0.23,1.06-1.06,1.05
		c-3.77-0.05-7.53,0.03-11.3-0.05c-1.1-0.02-1.3,0.29-1.3,1.33c0.03,20.8,0.03,41.6,0,62.4c0,1.07,0.26,1.31,1.32,1.31
		c15.15-0.04,30.3-0.04,45.44,0c1.07,0,1.32-0.25,1.32-1.32C83.77,110.14,83.78,96.31,83.78,82.49z"/>
	<path class="st0" d="M155.68,252.1c-10.61,0.01-21.22,0.03-31.83,0.04c-2.57,0-2.57,0-2.57-2.57c0-3.42,0.03-6.85-0.02-10.27
		c-0.01-0.84,0.22-1.05,1.05-1.05c8.39,0.03,16.77,0,25.16,0.05c1.07,0.01,1.39-0.24,1.31-1.32c-0.1-1.45-0.08-2.91-0.01-4.36
		c0.04-0.85-0.23-1.05-1.06-1.05c-8.34,0.03-16.69-0.01-25.03,0.05c-1.17,0.01-1.45-0.29-1.44-1.45c0.06-7.23,0.03-14.46,0.03-21.7
		c0-0.53-0.17-1.06,0.77-1.05c11.21,0.05,22.42,0.05,33.63,0.06c0,3.4,0,6.79,0,10.19c-6.33,0.01-12.66,0.03-18.99,0.04
		c-0.51,0-1.02,0.03-1.54,0.04c-1.19-0.01-2.38-0.01-3.57-0.02c-0.86-0.01-1.71,0-2.57-0.02c-0.51-0.01-0.75,0.15-0.82,0.71
		c-0.32,2.73-0.2,2.89,2.49,2.88c0.3,0,0.6-0.02,0.9-0.02c1.19,0,2.38-0.01,3.56-0.01c6.07,0.01,12.15,0.02,18.22,0.04
		c0.77,0,1.54,0.02,2.31,0.03C155.69,231.6,155.68,241.85,155.68,252.1z"/>
	<path class="st0" d="M248.14,252.1c-1.97,0.01-3.93-0.02-5.9,0.06c-0.85,0.03-1.05-0.23-1.04-1.06c0.03-6.12-0.01-12.23,0.04-18.35
		c0.01-0.96-0.22-1.2-1.18-1.18c-4.15,0.07-8.3,0.05-12.44,0.07c-1.19-0.01-2.38-0.02-3.58-0.02c-0.64-0.01-1.29,0.05-1.91-0.03
		c-1.19-0.16-1.49,0.32-1.48,1.48c0.05,6.35,0.02,12.69,0.01,19.04c-1.97,0.01-3.94-0.02-5.9,0.06c-0.86,0.04-1.04-0.25-1.04-1.06
		c0.03-6.76,0.02-13.52,0.02-20.28c0-7.45,0-14.89,0-22.34c0-0.53-0.17-1.06,0.77-1.05c11.21,0.05,22.42,0.05,33.63,0.06
		C248.14,222.36,248.14,237.23,248.14,252.1z M224.05,221.29c1.19,0,2.38-0.01,3.56-0.01c3.63,0.01,7.27,0.03,10.9,0.04
		c2.84,0.01,2.82,0,2.72-2.82c-0.02-0.61-0.18-0.79-0.79-0.78c-4.28,0.04-8.55,0.04-12.83,0.05c-1.19-0.01-2.38-0.02-3.57-0.02
		c-0.86-0.01-1.71,0-2.57-0.02c-0.51-0.01-0.75,0.15-0.82,0.71c-0.32,2.73-0.2,2.89,2.49,2.88
		C223.45,221.31,223.75,221.3,224.05,221.29z"/>
	<path class="st0" d="M200.12,217.68c-5.22,0.01-10.43,0.03-15.65,0.04c-0.51,0-1.02,0.03-1.54,0.04c-1.11-0.01-2.21-0.01-3.32-0.02
		c-0.68-0.01-1.38,0.05-2.05-0.03c-1.1-0.13-1.35,0.32-1.34,1.37c0.05,5.3,0.02,10.61,0.02,15.92c0,3.34,0,3.34,3.37,3.26
		c1.11-0.01,2.21-0.01,3.32-0.02c5.22,0.01,10.43,0.03,15.65,0.04c0.51,0,1.02,0.03,1.54,0.04c0,4.6,0,9.19,0,13.79
		c-10.01,0.01-20.02,0.01-30.04,0.06c-0.95,0-0.77-0.53-0.77-1.06c0-6.46,0-12.92,0-19.39c0-7.75,0-15.49,0-23.24
		c0-0.53-0.18-1.06,0.77-1.06c10.01,0.05,20.02,0.05,30.04,0.06C200.12,210.88,200.12,214.28,200.12,217.68z"/>
	<path class="st0" d="M107.66,217.68c-5.22,0.01-10.43,0.03-15.65,0.04c-0.51,0-1.02,0.03-1.54,0.04c-1.11-0.01-2.21-0.01-3.32-0.02
		c-0.68-0.01-1.38,0.05-2.05-0.03c-1.1-0.13-1.35,0.32-1.34,1.37c0.05,5.3,0.02,10.61,0.02,15.92c0,3.34,0,3.34,3.37,3.26
		c1.11-0.01,2.21-0.01,3.32-0.02c5.22,0.01,10.43,0.03,15.65,0.04c0.51,0,1.02,0.03,1.54,0.04c0,4.6,0,9.19,0,13.79
		c-10.01,0.01-20.02,0.01-30.04,0.06c-0.95,0-0.77-0.53-0.77-1.06c0-6.51,0-13.01,0-19.52c0-7.7,0-15.41,0-23.11
		c0-0.53-0.18-1.06,0.77-1.06c10.01,0.05,20.02,0.05,30.04,0.06C107.66,210.88,107.66,214.28,107.66,217.68z"/>
	<path class="st0" d="M49.36,252.1c-1.84,0.01-3.68-0.04-5.51,0.06c-0.98,0.05-1.18-0.25-1.17-1.19
		c0.04-10.53,0.02-21.05,0.02-31.58c0-1.67,0-1.67-1.67-1.67c-3.72,0-7.44-0.03-11.17,0.02c-0.84,0.01-1.07-0.21-1.05-1.05
		c0.05-2.78,0.03-5.56,0.01-8.34c0-0.58,0.02-0.92,0.79-0.92c11.21,0.04,22.42,0.05,33.63,0.06c0,1.88-0.06,3.77,0.04,5.65
		c0.05,1.07-0.35,1.28-1.32,1.27c-3.68-0.05-7.36,0.03-11.03-0.05c-1.23-0.03-1.57,0.32-1.57,1.56
		C49.38,227.97,49.36,240.04,49.36,252.1z"/>
	<path class="st2" d="M49.36,252.1c0-12.06,0.03-24.13-0.02-36.19c0-1.24,0.33-1.59,1.57-1.56c3.68,0.08,7.36,0,11.03,0.05
		c0.97,0.01,1.37-0.2,1.32-1.27c-0.09-1.88-0.03-3.76-0.04-5.65c1.11-0.01,2.21-0.02,3.32-0.02c0,3.41,0,6.82,0,10.24
		c-3.41,0.02-6.82,0.04-10.23,0.06c-0.47-0.01-0.94-0.04-1.41-0.04c-1.94,0-1.94,0-1.94,1.95c-0.01,10.82-0.02,21.63-0.04,32.45
		C51.74,252.11,50.55,252.11,49.36,252.1z"/>
	<path class="st3" d="M251.46,207.46c3.37-0.08,3.37-0.08,3.37,3.27c0,13.22,0,26.44,0,39.67c0,1.74,0,1.74-1.7,1.74
		c-0.56,0-1.11-0.01-1.67-0.02c0.01-1.2,0.03-2.39,0.03-3.59C251.48,234.84,251.47,221.15,251.46,207.46z"/>
	<path class="st2" d="M251.46,207.46c0.01,13.69,0.02,27.38,0.03,41.06c0,1.2-0.02,2.39-0.03,3.59c-1.11-0.01-2.21-0.01-3.32-0.02
		c0-14.87,0-29.74,0-44.61C249.25,207.48,250.35,207.47,251.46,207.46z"/>
	<path class="st3" d="M52.93,252.12c0.01-10.82,0.03-21.63,0.04-32.45c0-1.95,0-1.95,1.94-1.95c0.47,0,0.94,0.03,1.41,0.04
		c0,10.93-0.03,21.85,0.02,32.78c0.01,1.28-0.29,1.82-1.62,1.61C54.13,252.06,53.53,252.12,52.93,252.12z"/>
	<path class="st2" d="M155.68,252.1c0-10.25,0-20.5,0-30.75c1.11-0.01,2.21-0.01,3.32-0.02c0,10.26,0,20.52,0,30.79
		C157.9,252.11,156.79,252.11,155.68,252.1z"/>
	<path class="st3" d="M159,252.12c0-10.26,0-20.52,0-30.79c3.37-0.08,3.37-0.08,3.37,3.27c0,8.64-0.03,17.28,0.03,25.92
		c0.01,1.27-0.27,1.83-1.61,1.63C160.21,252.06,159.6,252.13,159,252.12z"/>
	<path class="st3" d="M224.04,231.61c1.19,0.01,2.38,0.02,3.58,0.02c0,6.34-0.03,12.67,0.01,19.01c0.01,1.12-0.22,1.68-1.46,1.52
		c-0.72-0.1-1.45-0.03-2.18-0.03C224.01,245.29,224.02,238.45,224.04,231.61z"/>
	<path class="st2" d="M224.04,231.61c-0.02,6.84-0.03,13.68-0.05,20.52c-1.11-0.01-2.22-0.02-3.33-0.03
		c0-6.35,0.04-12.69-0.01-19.04c-0.01-1.16,0.29-1.64,1.48-1.48C222.75,231.66,223.4,231.6,224.04,231.61z"/>
	<path class="st3" d="M87.15,217.74c1.11,0.01,2.21,0.01,3.32,0.02c0,6.82,0,13.64,0,20.47c-1.11,0.01-2.21,0.01-3.32,0.02
		C87.15,231.41,87.15,224.58,87.15,217.74z"/>
	<path class="st3" d="M179.61,217.74c1.11,0.01,2.21,0.01,3.32,0.02c0,6.82,0,13.64,0,20.47c-1.11,0.01-2.21,0.01-3.32,0.02
		C179.61,231.41,179.61,224.58,179.61,217.74z"/>
	<path class="st3" d="M110.97,238.29c3.63-0.09,3.63-0.09,3.63,3.51c0,3.08-0.02,6.15,0.01,9.23c0.01,0.81-0.2,1.19-1.07,1.12
		c-0.85-0.06-1.71-0.02-2.56-0.03C110.98,247.51,110.98,242.9,110.97,238.29z"/>
	<path class="st3" d="M203.43,238.29c3.63-0.09,3.63-0.09,3.63,3.51c0,3.08-0.02,6.15,0.01,9.23c0.01,0.81-0.2,1.19-1.07,1.12
		c-0.85-0.06-1.71-0.02-2.56-0.03C203.44,247.51,203.44,242.9,203.43,238.29z"/>
	<path class="st2" d="M110.97,238.29c0,4.61,0.01,9.22,0.01,13.84c-1.11-0.01-2.22-0.02-3.33-0.03c0-4.6,0-9.19,0-13.79
		C108.76,238.3,109.87,238.29,110.97,238.29z"/>
	<path class="st2" d="M203.43,238.29c0,4.61,0.01,9.22,0.01,13.84c-1.11-0.01-2.22-0.02-3.33-0.03c0-4.6,0-9.19,0-13.79
		C201.22,238.3,202.33,238.29,203.43,238.29z"/>
	<path class="st3" d="M203.43,207.46c3.63-0.09,3.63-0.09,3.63,3.51c0,1.92-0.02,3.85,0.01,5.77c0.01,0.7-0.21,1.02-0.95,0.98
		c-0.9-0.05-1.79-0.02-2.69-0.03C203.43,214.29,203.43,210.88,203.43,207.46z"/>
	<path class="st3" d="M110.97,207.46c3.63-0.09,3.63-0.09,3.63,3.51c0,1.92-0.02,3.85,0.01,5.77c0.01,0.7-0.21,1.02-0.95,0.98
		c-0.9-0.05-1.79-0.02-2.69-0.03C110.97,214.29,110.97,210.88,110.97,207.46z"/>
	<path class="st2" d="M203.43,207.46c0,3.41,0,6.82,0,10.24c-1.11-0.01-2.21-0.01-3.32-0.02c0-3.4,0-6.79,0-10.19
		C201.22,207.48,202.33,207.47,203.43,207.46z"/>
	<path class="st3" d="M66.54,217.7c0-3.41,0-6.82,0-10.24c3.37-0.08,3.37-0.08,3.37,3.26c0,2.01-0.02,4.02,0.01,6.03
		c0.01,0.7-0.2,1.02-0.95,0.98C68.17,217.68,67.36,217.71,66.54,217.7z"/>
	<path class="st2" d="M110.97,207.46c0,3.41,0,6.82,0,10.24c-1.11-0.01-2.21-0.01-3.32-0.02c0-3.4,0-6.79,0-10.19
		C108.76,207.48,109.87,207.47,110.97,207.46z"/>
	<path class="st2" d="M155.68,217.68c0-3.4,0-6.79,0-10.19c1.11-0.01,2.21-0.02,3.32-0.02c0,3.41,0,6.82,0,10.24
		C157.9,217.69,156.79,217.69,155.68,217.68z"/>
	<path class="st3" d="M159,217.7c0-3.41,0-6.82,0-10.24c3.37-0.08,3.37-0.08,3.37,3.26c0,2.01-0.02,4.02,0.01,6.03
		c0.01,0.7-0.2,1.02-0.95,0.98C160.63,217.68,159.81,217.71,159,217.7z"/>
	<path class="st3" d="M131.58,217.74c1.19,0.01,2.38,0.01,3.57,0.02c0,1.17,0,2.34,0,3.52c-1.19,0-2.38,0.01-3.56,0.01
		C131.59,220.11,131.59,218.92,131.58,217.74z"/>
	<path class="st4" d="M83.78,82.49c0,13.82-0.01,27.65,0.03,41.47c0,1.07-0.25,1.32-1.32,1.32c-15.15-0.04-30.3-0.04-45.44,0
		c-1.06,0-1.32-0.24-1.32-1.31c0.04-20.8,0.04-41.6,0-62.4c0-1.04,0.2-1.36,1.3-1.33c3.76,0.08,7.53,0,11.3,0.05
		c0.83,0.01,1.08-0.2,1.06-1.05c-0.06-2.74,0.01-5.48-0.04-8.22c-0.02-0.85,0.23-1.06,1.05-1.05c5.01,0.04,10.01-0.01,15.02,0.04
		c0.97,0.01,1.2-0.24,1.18-1.19c-0.07-2.69,0.01-5.39-0.05-8.09c-0.02-0.86,0.25-1.04,1.07-1.04c5.01,0.04,10.01,0.05,15.02-0.01
		c0.99-0.01,1.17,0.27,1.17,1.2C83.77,54.76,83.78,68.62,83.78,82.49z M80.19,82.51c0-12.71-0.01-25.42,0.02-38.13
		c0-0.95-0.17-1.38-1.26-1.35c-2.61,0.08-5.22,0.05-7.83,0.01c-0.83-0.01-1.24,0.15-1.22,1.11c0.06,2.61-0.03,5.22,0.04,7.83
		c0.03,1.07-0.3,1.38-1.37,1.37c-4.79-0.05-9.59,0-14.38-0.04c-0.94-0.01-1.27,0.25-1.25,1.22c0.06,2.57-0.02,5.14,0.04,7.7
		c0.03,1.04-0.24,1.41-1.34,1.39c-3.68-0.07-7.36,0.03-11.04-0.06c-1.28-0.03-1.54,0.4-1.53,1.6c0.04,18.4,0.04,36.81,0,55.21
		c0,1.24,0.34,1.56,1.57,1.56c12.67-0.04,25.33-0.04,38,0c1.22,0,1.58-0.3,1.58-1.55C80.17,107.76,80.19,95.14,80.19,82.51z"/>
	<path class="st5" d="M189.85,183.51c-0.51,0.01-1.03,0.04-1.54,0.04c-27.52,0-55.03-0.01-82.55,0.03c-1.15,0-1.55-0.25-1.46-1.45
		c0.11-1.53-0.01-3.08,0.04-4.62c0.03-0.74-0.22-0.95-0.93-0.91c-0.84,0.04-1.94,0.27-2.48-0.15c-0.59-0.46-0.16-1.6-0.18-2.44
		c-0.01-0.52-0.11-0.83-0.7-0.74c-0.08,0.01-0.17,0.01-0.26,0.01c-2.36-0.05-2.4-0.05-2.38-2.37c0.01-0.79-0.19-1-0.99-1
		c-2.36,0.02-2.43-0.02-2.34-2.38c0.04-1.08-0.36-1.23-1.29-1.21c-2.33,0.05-2.33,0.01-2.33-2.29c0-1.2,0.03-2.4-0.01-3.59
		c-0.02-0.62,0.19-0.85,0.8-0.79c0.38,0.04,0.77,0.01,1.15,0.01c27.43,0,54.86,0,82.29,0c0.51,0,1.03,0.03,1.54,0.04
		c0,1.09,0.01,2.19,0.01,3.28c-25.67,0-51.33,0.01-77,0.01c-0.38,0-0.77,0-1.15,0.01c-0.31,0.01-0.65,0.05-0.67,0.44
		c-0.03,0.89-0.3,1.87,0.12,2.65c0.31,0.58,1.19,0.16,1.81,0.25c0.08,0.01,0.17,0.01,0.26,0c0.93-0.14,1.14,0.32,1.14,1.18
		c-0.01,2.37,0.03,2.41,2.42,2.4c0.89,0,1.18,0.26,1.17,1.16c-0.02,2.16,0.03,2.16,2.13,2.2c0.04,0,0.09,0.01,0.13,0
		c0.87-0.12,1.1,0.3,1.07,1.11c-0.05,1.32-0.02,2.65-0.01,3.98c0.01,2.07-0.21,1.84,1.86,1.85c26.78,0.01,53.56,0.01,80.33,0.01
		C189.86,181.32,189.85,182.42,189.85,183.51z"/>
	<path class="st5" d="M145.42,125.21c-2.1,0.01-4.19,0.04-6.29,0.04c-15.79,0-31.58-0.01-47.37,0.03c-1.06,0-1.32-0.24-1.32-1.32
		c0.03-27.65,0.03-55.3,0-82.95c0-1.06,0.25-1.33,1.32-1.33c15.23,0.04,30.47,0.03,45.7,0.03c0.34,0,0.68,0.03,1.02,0.04
		c0,1.09,0.01,2.19,0.01,3.28c-1.12,0.01-2.23,0.02-3.35,0.02c-13.26,0-26.52,0.01-39.78-0.03c-1.12,0-1.33,0.38-1.33,1.4
		c0.02,25.37,0.03,50.74,0,76.11c0,1.02,0.22,1.4,1.33,1.39c15.49-0.04,30.97-0.03,46.46-0.03c1.2,0.01,2.41,0.01,3.61,0.02
		C145.43,123.02,145.42,124.11,145.42,125.21z"/>
	<path class="st4" d="M90.46,183.51c-9.62,0.01-19.25,0.03-28.87,0.04c-1.94,0-1.94,0-1.94-1.92c0-16.04,0.01-32.08-0.02-48.13
		c0-1.01,0.15-1.36,1.28-1.35c7.23,0.06,14.46,0.05,21.69,0c1.04-0.01,1.23,0.31,1.22,1.27c-0.03,11.76-0.01,23.53-0.05,35.29
		c0,1.01,0.26,1.41,1.25,1.22c0.04-0.01,0.09,0,0.13,0c1.98,0,2.07,0.01,1.95,2c-0.07,1.18,0.32,1.51,1.41,1.34
		c0.38-0.06,0.77,0.03,1.15-0.02c0.72-0.1,0.86,0.24,0.83,0.88c-0.05,0.81,0,1.62,0,2.44C90.47,178.9,90.46,181.21,90.46,183.51z
		 M63.24,157.68c0,7.02,0.02,14.03-0.02,21.05c-0.01,1.07,0.26,1.52,1.43,1.52c7.1-0.04,14.2-0.02,21.3-0.03
		c0.37,0,0.95,0.15,1.05-0.24c0.26-0.99,0.31-2.08,0-3.03c-0.21-0.64-1.08-0.33-1.63-0.29c-1.18,0.1-1.68-0.2-1.62-1.52
		c0.1-2.05,0.24-1.84-1.83-1.85c-1.73-0.01-1.74,0-1.74-1.81c0-11.51-0.02-23.01,0.02-34.52c0-1.1-0.24-1.47-1.41-1.46
		c-4.75,0.07-9.49,0.06-14.24,0c-1.1-0.01-1.35,0.35-1.34,1.39C63.26,143.82,63.24,150.75,63.24,157.68z"/>
	<path class="st5" d="M162.37,152.69c-0.47,0.01-0.94,0.04-1.41,0.04c-23.02,0-46.04-0.01-69.06,0.03c-1.15,0-1.48-0.25-1.47-1.44
		c0.07-5.99,0.04-11.98,0.02-17.97c0-0.81,0.07-1.19,1.06-1.18c18.91,0.03,37.82,0.02,56.74,0.03c0.17,0,0.34,0.03,0.51,0.04
		c0,1.09,0.01,2.19,0.01,3.28c-0.3,0-0.6,0.01-0.9,0.01c-17.41,0-34.82,0.02-52.23-0.03c-1.33,0-1.65,0.37-1.61,1.65
		c0.09,3.46,0.02,6.93,0.03,10.4c0.01,2.05-0.25,1.86,1.84,1.86c22.16,0.01,44.32,0.01,66.48,0.01
		C162.38,150.5,162.37,151.6,162.37,152.69z"/>
	<path class="st6" d="M203.46,39.76c2.05-0.01,4.11-0.01,6.16-0.05c0.62-0.01,0.86,0.19,0.79,0.8c-0.03,0.21,0,0.43,0,0.64
		c0,27.56-0.01,55.11,0.03,82.67c0,1.17-0.28,1.48-1.45,1.46c-4.06-0.09-8.13-0.06-12.19-0.07c0.01-1.09,0.01-2.19,0.02-3.28
		c0,0-0.02-0.03-0.02-0.03c2.87,0,5.73,0.01,8.6,0.01c1.68,0,1.68,0,1.68-1.63c0-24.55,0-49.11-0.01-73.66
		c0-1.14,0.51-2.61-0.25-3.33c-0.75-0.71-2.2-0.17-3.35-0.22l0.02-0.03C203.47,41.94,203.46,40.85,203.46,39.76z"/>
	<path class="st6" d="M210.39,159.71c6.59-0.01,13.17-0.02,19.76-0.06c0.75,0,0.81,0.33,0.8,0.92c-0.02,2.78,0.03,5.56-0.03,8.34
		c-0.02,0.87,0.27,1.05,1.08,1.05c2.25-0.02,2.3,0.01,2.25,2.22c-0.02,0.92,0.26,1.14,1.15,1.12c2.39-0.04,2.43,0,2.45,2.41
		c0.01,0.74,0.23,0.92,0.94,0.92c2.39,0.02,2.44,0.05,2.39,2.47c-0.02,0.91,0.24,1.14,1.13,1.13c2.32-0.05,2.63,0.42,2.24,2.79
		c-0.11,0.69-0.56,0.52-0.94,0.53c-2.95,0.01-5.9,0.01-8.85,0c-3.59-0.01-7.18-0.03-10.78-0.04c0.01-1.09,0.01-2.19,0.02-3.28
		c0,0-0.02-0.03-0.02-0.03c3.03,0,6.07,0.01,9.1,0.01c0.37,0,0.95,0.17,1.05-0.22c0.27-0.99,0.3-2.07,0.02-3.03
		c-0.19-0.68-1.07-0.35-1.6-0.31c-1.23,0.1-1.76-0.19-1.67-1.58c0.12-1.98,0.27-1.77-1.74-1.79c-0.13,0-0.26-0.02-0.38,0
		c-0.99,0.15-1.22-0.31-1.2-1.24c0.05-2.65-0.01-5.3,0.03-7.95c0.01-0.82-0.21-1.12-1.07-1.11c-4.27,0.05-8.54,0.04-12.81,0.05
		c-1.11-0.02-2.21-0.04-3.32-0.06C210.41,161.89,210.4,160.8,210.39,159.71z"/>
	<path class="st2" d="M148.77,135.51c0-1.09-0.01-2.19-0.01-3.28c0.3-0.01,0.6-0.04,0.89-0.04c22.26,0,44.52,0,66.78,0
		c0.3,0,0.6,0.03,0.89,0.04c0,1.1-0.01,2.21-0.01,3.31c-22.85,0-45.71-0.01-68.56-0.01L148.77,135.51z"/>
	<path class="st2" d="M203.46,39.76c0.01,1.09,0.01,2.19,0.02,3.28c-21.66,0-43.32,0-64.98,0c0-1.09-0.01-2.19-0.01-3.28
		c0.3-0.01,0.6-0.04,0.89-0.04c21.06,0,42.12,0,63.19,0C202.86,39.72,203.16,39.74,203.46,39.76z"/>
	<path class="st2" d="M196.8,121.93c-0.01,1.09-0.01,2.19-0.02,3.28c-1.84,0.01-3.67,0.04-5.51,0.04c-14.82,0-29.63,0-44.45,0
		c-0.47,0-0.94-0.03-1.41-0.04c0.01-1.09,0.01-2.19,0.02-3.28C162.55,121.93,179.68,121.93,196.8,121.93z"/>
	<path class="st2" d="M162.37,152.69c0-1.1,0.01-2.19,0.01-3.29c0,0-0.01-0.02-0.01-0.02c0.47,0,0.94,0.01,1.41,0.01
		c15.55,0.01,31.09,0.02,46.64,0.03c-0.01,1.09-0.01,2.18-0.02,3.27c-3.88,0.01-7.77,0.04-11.65,0.04c-11.66,0.01-23.31,0-34.97,0
		C163.31,152.73,162.84,152.71,162.37,152.69z"/>
	<path class="st2" d="M210.39,159.71c0.01,1.09,0.01,2.18,0.02,3.27c-0.55,0.01-1.11,0.03-1.66,0.03
		c-10.84,0.01-21.68,0.01-32.51,0.01l0.01-0.02c0-1.09-0.01-2.19-0.01-3.28c6.91-0.01,13.82-0.04,20.72-0.04
		C201.44,159.67,205.92,159.7,210.39,159.71z"/>
	<path class="st2" d="M224.02,180.23c-0.01,1.09-0.01,2.19-0.02,3.28c-10.36,0.01-20.73,0.03-31.09,0.04
		c-1.02,0-2.05-0.03-3.07-0.04c0-1.09,0.01-2.19,0.01-3.28l-0.01-0.02C201.24,180.22,212.63,180.23,224.02,180.23z"/>
	<path class="st6" d="M210.39,152.69c0.01-1.09,0.01-2.18,0.02-3.27c1.11-0.02,2.21-0.04,3.32-0.05c3.61,0.13,3.61,0.13,3.6-3.46
		c0-0.04,0-0.08,0-0.13c0-2.21,0-4.42,0-6.63c0-1.2-0.01-2.4-0.01-3.61c0-1.1,0.01-2.21,0.01-3.31c3.35-0.17,3.35-0.17,3.35,3.18
		c0,5.39-0.03,10.77,0.02,16.16c0.01,0.97-0.25,1.21-1.2,1.19C216.46,152.68,213.43,152.71,210.39,152.69z"/>
	<path class="st5" d="M90.46,183.51c0.01-2.31,0.01-4.62,0.02-6.92c0.21,0.01,0.43,0.03,0.64,0.03c0.93,0.02,2.13-0.3,2.72,0.16
		c0.64,0.49,0.19,1.75,0.2,2.67c0.01,0.63,0.21,0.85,0.81,0.76c0.08-0.01,0.17,0,0.26,0c2.39,0.03,2.7,0.45,2.31,2.85
		c-0.1,0.62-0.47,0.49-0.82,0.49C94.55,183.55,92.5,183.53,90.46,183.51z"/>
	<path class="st2" d="M131.58,217.74c0,1.18,0.01,2.37,0.01,3.55c-0.3,0.01-0.6,0.02-0.9,0.02c-2.69,0.01-2.82-0.15-2.49-2.88
		c0.07-0.57,0.31-0.72,0.82-0.71C129.87,217.74,130.73,217.73,131.58,217.74z"/>
	<path class="st1" d="M227.62,217.76c4.28-0.01,8.55-0.02,12.83-0.05c0.61-0.01,0.77,0.17,0.79,0.78c0.1,2.83,0.12,2.83-2.72,2.82
		c-3.63-0.01-7.27-0.02-10.9-0.04C227.62,220.1,227.62,218.93,227.62,217.76z"/>
	<path class="st3" d="M227.62,217.76c0,1.17,0,2.34,0,3.52c-1.19,0-2.38,0.01-3.56,0.01c0-1.18-0.01-2.37-0.01-3.55
		C225.23,217.75,226.42,217.75,227.62,217.76z"/>
	<path class="st2" d="M224.04,217.74c0,1.18,0.01,2.37,0.01,3.55c-0.3,0.01-0.6,0.02-0.9,0.02c-2.69,0.01-2.82-0.15-2.49-2.88
		c0.07-0.57,0.31-0.72,0.82-0.71C222.33,217.74,223.19,217.73,224.04,217.74z"/>
	<path class="st2" d="M179.61,217.74c0,6.84,0,13.67,0,20.51c-3.37,0.08-3.37,0.08-3.37-3.26c0-5.31,0.03-10.61-0.02-15.92
		c-0.01-1.04,0.24-1.5,1.34-1.37C178.24,217.79,178.93,217.73,179.61,217.74z"/>
	<path class="st2" d="M87.15,217.74c0,6.84,0,13.67,0,20.51c-3.37,0.08-3.37,0.08-3.37-3.26c0-5.31,0.03-10.61-0.02-15.92
		c-0.01-1.04,0.24-1.5,1.34-1.37C85.78,217.79,86.47,217.73,87.15,217.74z"/>
	<path class="st0" d="M80.19,82.51c0,12.63-0.02,25.25,0.03,37.88c0,1.25-0.36,1.55-1.58,1.55c-12.67-0.04-25.33-0.04-38,0
		c-1.23,0-1.57-0.31-1.57-1.56c0.04-18.4,0.04-36.81,0-55.21c0-1.2,0.26-1.62,1.53-1.6c3.68,0.09,7.36-0.01,11.04,0.06
		c1.1,0.02,1.37-0.35,1.34-1.39c-0.07-2.57,0.02-5.14-0.04-7.7c-0.02-0.98,0.3-1.23,1.25-1.22c4.79,0.04,9.59-0.01,14.38,0.04
		c1.07,0.01,1.4-0.29,1.37-1.37c-0.07-2.61,0.01-5.22-0.04-7.83c-0.02-0.97,0.39-1.13,1.22-1.11c2.61,0.04,5.22,0.07,7.83-0.01
		c1.09-0.03,1.26,0.4,1.26,1.35C80.18,57.09,80.19,69.8,80.19,82.51z M49.41,94.42c-0.01,0.73,0.04,1.46-0.05,2.18
		c-0.16,1.16,0.24,1.52,1.43,1.46c2.18-0.11,2.18-0.03,2.18-2.23c0-0.47-0.03-0.94-0.04-1.41c0-5.64,0-11.29,0-16.93
		c0.01-0.68-0.05-1.38,0.05-2.05c0.19-1.28-0.24-1.68-1.56-1.59c-2.05,0.13-2.06,0.03-2.05,2.1c0,0.51,0.02,1.02,0.04,1.54
		C49.41,83.13,49.41,88.77,49.41,94.42z M69.88,70.55c0.01-0.9,0.02-1.79,0.04-2.69c0.01-0.37-0.03-0.6-0.51-0.68
		c-2.47-0.4-2.84-0.12-2.83,2.35c0,0.34,0.03,0.68,0.04,1.02c0,10.27,0,20.53,0,30.8c-0.01,0.9-0.02,1.79-0.04,2.69
		c-0.01,0.37,0.02,0.6,0.51,0.68c2.54,0.41,2.84,0.18,2.82-2.34c0-0.34-0.02-0.68-0.04-1.02C69.88,91.08,69.88,80.82,69.88,70.55z"
		/>
	<path class="st0" d="M189.86,180.23c-26.78,0-53.56-0.01-80.33-0.01c-2.07,0-1.85,0.22-1.86-1.85c-0.01-1.33-0.04-2.65,0.01-3.98
		c0.03-0.81-0.2-1.23-1.07-1.11c-0.04,0.01-0.09,0-0.13,0c-2.1-0.04-2.15-0.04-2.13-2.2c0.01-0.9-0.29-1.17-1.17-1.16
		c-2.4,0.01-2.43-0.03-2.42-2.4c0-0.86-0.21-1.32-1.14-1.18c-0.08,0.01-0.17,0.01-0.26,0c-0.62-0.09-1.49,0.33-1.81-0.25
		c-0.42-0.77-0.15-1.76-0.12-2.65c0.02-0.39,0.35-0.43,0.67-0.44c0.38-0.01,0.77-0.01,1.15-0.01c25.67,0,51.33-0.01,77-0.01
		c0,0-0.01,0.02-0.01,0.02c0,1.1,0,2.19,0,3.29c-1.45,0.01-2.91,0.04-4.36,0.04c-2.6,0.01-2.56,0-2.59,2.57
		c-0.01,0.84,0.22,1.05,1.06,1.05c4.19-0.03,8.38,0.01,12.58,0.02c0,1.8,0.04,3.59-0.02,5.39c-0.03,0.92,0.2,1.31,1.2,1.27
		c1.92-0.08,3.85-0.03,5.77-0.04l-0.01-0.01c-0.01,1.2-0.01,2.41-0.02,3.61L189.86,180.23z M117.94,166.35c-2.57,0-5.13,0-7.7,0
		c-2.6,0-2.56,0-2.59,2.57c-0.01,0.85,0.23,1.05,1.06,1.05c5.65-0.04,11.29-0.02,16.94-0.02c2.64,0,2.61,0,2.59-2.7
		c-0.01-0.73-0.21-0.92-0.93-0.91C124.19,166.37,121.06,166.35,117.94,166.35z M148.86,169.94c2.61,0,5.22,0,7.83,0
		c2.35,0,2.29,0,2.37-2.28c0.04-1.03-0.17-1.36-1.29-1.34c-5.6,0.07-11.21,0.03-16.81,0.03c-2.5,0-2.45,0-2.5,2.54
		c-0.02,0.96,0.32,1.09,1.16,1.08C142.7,169.91,145.78,169.94,148.86,169.94z M170.85,173.28c-2.05,0-4.11,0-6.16,0
		c-2.35,0-2.31,0-2.34,2.3c-0.01,0.83,0.2,1.06,1.05,1.06c4.62-0.04,9.24-0.02,13.86-0.02c2.38,0,2.35,0,2.34-2.43
		c0-0.72-0.18-0.93-0.92-0.92C176.07,173.31,173.46,173.28,170.85,173.28z M121.28,176.62c1.54,0,3.08,0,4.62,0
		c2.34,0,2.3,0,2.34-2.31c0.01-0.84-0.22-1.06-1.05-1.05c-3.38,0.05-6.76,0.02-10.14,0.02c-2.57,0-2.55,0-2.46,2.57
		c0.02,0.61,0.18,0.8,0.79,0.79C117.34,176.6,119.31,176.62,121.28,176.62z M146.88,176.62c0.94,0,1.88,0,2.82,0
		c2.48,0,2.44,0,2.43-2.48c0-0.79-0.3-0.88-0.97-0.87c-2.31,0.04-4.62,0.01-6.93,0.01c-2.48,0-2.44,0-2.43,2.48
		c0,0.79,0.3,0.9,0.97,0.87C144.14,176.59,145.51,176.62,146.88,176.62z"/>
	<path class="st0" d="M141.82,121.9c-15.49,0-30.97-0.01-46.46,0.03c-1.11,0-1.33-0.37-1.33-1.39c0.03-25.37,0.03-50.74,0-76.11
		c0-1.02,0.21-1.4,1.33-1.4c13.26,0.04,26.52,0.03,39.78,0.03c0,1.91,0.02,3.82,0,5.72c-0.01,0.75,0.18,1.17,1.05,1.22
		c2.3,0.11,2.29,0.15,2.29,2.52c0,0.25,0,0.51,0,0.76c-0.47,0.01-0.94,0.04-1.41,0.04c-9.42,0-18.83,0.01-28.25-0.01
		c-0.79,0-1.19,0.03-1.19,1.04c0.04,18.75,0.04,37.5,0,56.25c0,1.01,0.4,1.05,1.19,1.04c8.65-0.02,17.29-0.02,25.94-0.01
		c3.55,0,7.1,0.03,10.65,0.04c0,0.26,0,0.51,0,0.77c0,2.47,0,2.51-2.46,2.51c-0.91,0-1.18,0.3-1.15,1.18
		C141.86,118.06,141.82,119.98,141.82,121.9z"/>
	<path class="st7" d="M138.49,53.29c0-0.25,0-0.51,0-0.76c0-2.37,0-2.4-2.29-2.52c-0.87-0.04-1.06-0.47-1.05-1.22
		c0.02-1.91,0.01-3.82,0-5.72c1.12-0.01,2.23-0.01,3.35-0.02c21.66,0,43.32,0,64.98,0c0,0-0.02,0.03-0.02,0.03
		c0,24.04,0.01,48.08,0.01,72.12c0,3.38,0,3.38-3.38,3.38c-3.28,0-3.28,0-3.31,3.33c0,0,0.02,0.03,0.02,0.03
		c-17.12,0-34.25,0-51.37-0.01c-1.2-0.01-2.41-0.01-3.61-0.02c0-1.92,0.04-3.84-0.01-5.76c-0.02-0.88,0.24-1.19,1.15-1.18
		c2.46,0,2.46-0.04,2.46-2.51c0-0.26,0-0.51,0-0.77c7.4-0.01,14.81-0.03,22.21-0.04c8.52-0.01,17.03-0.03,25.55-0.04
		c0.73,0.01,1.46-0.04,2.18,0.05c1.19,0.16,1.46-0.3,1.46-1.46c-0.04-17.8-0.02-35.6-0.04-53.4c0-1.13,0.52-2.7-0.24-3.29
		c-0.72-0.56-2.2-0.13-3.35-0.14c-0.43-0.01-0.85-0.04-1.28-0.04c-16.26,0-32.53,0-48.79,0C141.57,53.33,140.03,53.3,138.49,53.29z"
		/>
	<path class="st0" d="M63.24,157.68c0-6.93,0.02-13.86-0.02-20.79c-0.01-1.04,0.24-1.4,1.34-1.39c4.75,0.06,9.5,0.06,14.24,0
		c1.17-0.02,1.41,0.35,1.41,1.46c-0.04,11.51-0.02,23.01-0.02,34.52c0,1.81,0,1.8,1.74,1.81c2.07,0.01,1.93-0.2,1.83,1.85
		c-0.07,1.32,0.44,1.62,1.62,1.52c0.55-0.05,1.42-0.36,1.63,0.29c0.31,0.96,0.25,2.04,0,3.03c-0.1,0.4-0.68,0.24-1.05,0.24
		c-7.1,0.01-14.2-0.02-21.3,0.03c-1.17,0.01-1.44-0.44-1.43-1.52C63.25,171.71,63.24,164.69,63.24,157.68z"/>
	<path class="st0" d="M162.38,149.41c-22.16,0-44.32-0.01-66.48-0.01c-2.09,0-1.84,0.19-1.84-1.86c-0.01-3.47,0.05-6.93-0.03-10.4
		c-0.03-1.28,0.28-1.65,1.61-1.65c17.41,0.05,34.82,0.03,52.23,0.03c0.3,0,0.6-0.01,0.9-0.01c0,0-0.01,0.02-0.01,0.02
		c0.01,1.21,0.01,2.41,0.02,3.62c0,1.88,0.04,3.76-0.03,5.64c-0.04,0.88,0.28,1.03,1.07,1.03c4.19-0.02,8.37,0.01,12.56,0.03
		c0,1.18,0,2.36,0,3.54L162.38,149.41z M111,139.16c-4.28-0.01-8.55-0.01-12.83-0.05c-0.62-0.01-0.8,0.17-0.79,0.79
		c0.04,1.71,0.04,3.42,0,5.13c-0.01,0.62,0.17,0.79,0.79,0.79c4.28-0.04,8.55-0.04,12.83-0.05c0.13,0.01,0.25,0.04,0.38,0.04
		c3.23,0.06,3.25,0.06,3.21-3.2c-0.01-1.13,0.52-2.69-0.24-3.29C113.63,138.75,112.14,139.17,111,139.16z"/>
	<path class="st8" d="M196.78,121.9c0.03-3.33,0.03-3.33,3.31-3.33c3.38,0,3.38,0,3.38-3.38c0-24.04-0.01-48.08-0.01-72.12
		c1.14,0.05,2.6-0.49,3.35,0.22c0.76,0.72,0.25,2.19,0.25,3.33c0.02,24.55,0.01,49.11,0.01,73.66c0,1.63,0,1.63-1.68,1.63
		C202.51,121.91,199.65,121.9,196.78,121.9z"/>
	<path class="st7" d="M189.85,180.21c0.01-1.2,0.01-2.41,0.02-3.61c7.23,0.01,14.45,0.02,21.68,0.02c2.2,0,2.14,0,2.21-2.18
		c0.03-0.96-0.23-1.19-1.18-1.18c-6.5,0.05-13,0.01-19.5,0.04c-1.05,0-2.49-0.49-3.05,0.21c-0.52,0.66-0.14,2.04-0.15,3.1
		c-1.92,0-3.85-0.04-5.77,0.04c-1,0.04-1.23-0.35-1.2-1.27c0.06-1.79,0.02-3.59,0.02-5.39c0.34-0.01,0.68-0.04,1.02-0.04
		c2.63-0.01,2.59-0.01,2.6-2.65c0-0.81-0.23-0.98-0.99-0.97c-3.1,0.03-6.2-0.01-9.3-0.02c0-1.1,0-2.19,0-3.29
		c10.84,0,21.68-0.01,32.51-0.01c0.55,0,1.11-0.02,1.66-0.03c1.11,0.02,2.21,0.04,3.32,0.06c0,1.09,0,2.18,0,3.27
		c-3.72,0.01-7.44,0.03-11.16,0.04c-2.46,0.01-2.4,0-2.47,2.44c-0.03,0.97,0.24,1.19,1.19,1.18c5.35-0.04,10.69,0,16.04,0.02
		c0,0.64,0.05,1.28-0.01,1.91c-0.1,1.06,0.33,1.42,1.39,1.4c2.18-0.04,1.94-0.3,1.96,1.97c0,0.17,0.01,0.34,0,0.51
		c-0.04,0.58,0.2,0.81,0.81,0.86c0.82,0.06,1.93-0.44,2.38,0.3c0.38,0.63,0.13,1.65,0.15,2.5c0.01,0.25,0,0.51-0.01,0.77
		c0,0,0.02,0.03,0.02,0.03C212.63,180.23,201.24,180.22,189.85,180.21z"/>
	<path class="st8" d="M213.74,166.3c0-1.09,0-2.18,0-3.27c4.27-0.01,8.54,0,12.81-0.05c0.87-0.01,1.09,0.3,1.07,1.11
		c-0.04,2.65,0.02,5.3-0.03,7.95c-0.02,0.93,0.21,1.39,1.2,1.24c0.13-0.02,0.26-0.01,0.38,0c2,0.02,1.86-0.19,1.74,1.79
		c-0.09,1.39,0.44,1.68,1.67,1.58c0.53-0.05,1.41-0.37,1.6,0.31c0.27,0.96,0.25,2.04-0.02,3.03c-0.11,0.39-0.68,0.22-1.05,0.22
		c-3.03,0.01-6.07,0-9.1-0.01c0-0.26,0.01-0.51,0.01-0.77c-0.02-0.85,0.23-1.87-0.15-2.5c-0.45-0.75-1.56-0.24-2.38-0.3
		c-0.6-0.04-0.85-0.27-0.81-0.86c0.01-0.17,0-0.34,0-0.51c-0.02-2.27,0.22-2.01-1.96-1.97c-1.06,0.02-1.49-0.34-1.39-1.4
		c0.06-0.63,0.01-1.27,0.01-1.91c0.26-0.01,0.51-0.04,0.77-0.04c2.65-0.02,2.62-0.02,2.6-2.7c-0.01-0.73-0.21-0.93-0.93-0.92
		C217.76,166.36,215.75,166.32,213.74,166.3z"/>
	<path class="st7" d="M148.77,139.15c-0.01-1.21-0.01-2.41-0.02-3.62c22.85,0,45.71,0.01,68.56,0.01c0,1.2,0.01,2.4,0.01,3.61
		c-1.2,0-2.4,0.01-3.6,0.01c-0.47-0.01-0.94-0.04-1.41-0.04c-16.3,0-32.61,0-48.91,0C158.53,139.12,153.65,139.14,148.77,139.15z"/>
	<path class="st7" d="M162.37,149.39c0-1.18,0-2.36,0-3.54c0.47-0.01,0.94-0.04,1.41-0.04c14.56,0,29.13,0,43.69,0
		c2.09,0,4.18-0.03,6.28-0.04c0,0-0.03,0.1-0.03,0.1c0,1.17,0.01,2.34,0.01,3.51c-1.11,0.02-2.21,0.04-3.32,0.06
		c-15.55-0.01-31.09-0.02-46.64-0.03C163.31,149.39,162.84,149.39,162.37,149.39z"/>
	<path class="st9" d="M213.73,139.16c1.2,0,2.4-0.01,3.6-0.01c0,2.21,0,4.42,0,6.63c-1.2,0.02-2.41,0.05-3.61,0.07l0.03-0.1
		C213.74,143.56,213.73,141.36,213.73,139.16z"/>
	<path class="st8" d="M213.72,145.85c1.2-0.02,2.41-0.05,3.61-0.07c0,0.04,0,0.08,0,0.13c0.01,3.59,0.01,3.59-3.6,3.46
		C213.73,148.2,213.72,147.02,213.72,145.85z"/>
	<path class="st10" d="M66.62,101.35c0-10.27,0-20.53,0-30.8c1.09,0,2.17,0,3.26,0c0,10.27,0,20.53,0,30.8
		C68.79,101.35,67.7,101.35,66.62,101.35z"/>
	<path class="st10" d="M52.93,77.49c0,5.64,0,11.29,0,16.93c-1.17,0-2.34,0-3.51,0c0-5.64,0-11.29,0-16.93
		C50.58,77.49,51.75,77.49,52.93,77.49z"/>
	<path class="st9" d="M52.93,77.49c-1.17,0-2.35,0-3.52,0c-0.01-0.51-0.04-1.02-0.04-1.54c-0.01-2.07,0-1.98,2.05-2.1
		c1.32-0.08,1.75,0.32,1.56,1.59C52.88,76.11,52.94,76.8,52.93,77.49z"/>
	<path class="st9" d="M49.41,94.42c1.17,0,2.34,0,3.51,0c0.01,0.47,0.04,0.94,0.04,1.41c0,2.2,0,2.12-2.18,2.23
		c-1.19,0.06-1.59-0.3-1.43-1.46C49.45,95.88,49.4,95.14,49.41,94.42z"/>
	<path class="st9" d="M69.88,70.55c-1.09,0-2.17,0-3.26,0c-0.01-0.34-0.04-0.68-0.04-1.02c-0.01-2.47,0.35-2.75,2.83-2.35
		c0.49,0.08,0.52,0.31,0.51,0.68C69.9,68.76,69.89,69.65,69.88,70.55z"/>
	<path class="st9" d="M66.62,101.35c1.09,0,2.17,0,3.26,0c0.01,0.34,0.04,0.68,0.04,1.02c0.01,2.53-0.28,2.75-2.82,2.34
		c-0.49-0.08-0.52-0.31-0.51-0.68C66.59,103.14,66.6,102.25,66.62,101.35z"/>
	<path class="st10" d="M117.94,166.35c3.12,0,6.25,0.02,9.37-0.02c0.72-0.01,0.92,0.18,0.93,0.91c0.02,2.7,0.05,2.7-2.59,2.7
		c-5.65,0-11.29-0.02-16.94,0.02c-0.83,0.01-1.07-0.2-1.06-1.05c0.03-2.57-0.01-2.57,2.59-2.57
		C112.81,166.35,115.37,166.35,117.94,166.35z"/>
	<path class="st10" d="M148.86,169.94c-3.08,0-6.16-0.03-9.24,0.02c-0.84,0.01-1.18-0.12-1.16-1.08c0.05-2.54,0-2.54,2.5-2.54
		c5.6,0,11.21,0.04,16.81-0.03c1.12-0.01,1.32,0.32,1.29,1.34c-0.08,2.28-0.02,2.28-2.37,2.28
		C154.08,169.94,151.47,169.94,148.86,169.94z"/>
	<path class="st10" d="M176.24,166.3c3.1,0.01,6.2,0.06,9.3,0.02c0.77-0.01,1,0.16,0.99,0.97c-0.01,2.64,0.02,2.64-2.6,2.65
		c-0.34,0-0.68,0.03-1.02,0.04c-4.19-0.01-8.38-0.05-12.58-0.02c-0.83,0.01-1.07-0.2-1.06-1.05c0.03-2.57-0.01-2.56,2.59-2.57
		C173.33,166.34,174.79,166.32,176.24,166.3z"/>
	<path class="st10" d="M170.85,173.28c2.61,0,5.22,0.03,7.83-0.02c0.73-0.01,0.91,0.2,0.92,0.92c0.01,2.43,0.04,2.43-2.34,2.43
		c-4.62,0-9.24-0.02-13.86,0.02c-0.85,0.01-1.06-0.23-1.05-1.06c0.03-2.3-0.01-2.3,2.34-2.3
		C166.75,173.28,168.8,173.28,170.85,173.28z"/>
	<path class="st10" d="M121.28,176.62c-1.97,0-3.94-0.02-5.9,0.01c-0.62,0.01-0.77-0.17-0.79-0.79c-0.08-2.57-0.11-2.57,2.46-2.57
		c3.38,0,6.76,0.03,10.14-0.02c0.84-0.01,1.07,0.21,1.05,1.05c-0.04,2.31,0.01,2.31-2.34,2.31
		C124.36,176.62,122.82,176.62,121.28,176.62z"/>
	<path class="st10" d="M146.88,176.62c-1.37,0-2.74-0.03-4.11,0.01c-0.67,0.02-0.96-0.09-0.97-0.87c-0.01-2.48-0.05-2.48,2.43-2.48
		c2.31,0,4.62,0.02,6.93-0.01c0.67-0.01,0.96,0.08,0.97,0.87c0.01,2.48,0.05,2.48-2.43,2.48
		C148.76,176.62,147.82,176.62,146.88,176.62z"/>
	<path class="st11" d="M138.49,53.29c1.54,0.01,3.08,0.04,4.62,0.04c16.26,0,32.53,0,48.79,0c0.43,0,0.85,0.03,1.28,0.04
		c0,19.41,0,38.82,0,58.23c-8.52,0.01-17.03,0.02-25.55,0.04c-7.4,0.01-14.81,0.03-22.21,0.04c-3.55-0.01-7.1-0.04-10.65-0.04
		c-8.65-0.01-17.29-0.01-25.94,0.01c-0.79,0-1.19-0.03-1.19-1.04c0.04-18.75,0.04-37.5,0-56.25c0-1.01,0.4-1.05,1.19-1.04
		c9.42,0.02,18.83,0.02,28.25,0.01C137.55,53.33,138.02,53.3,138.49,53.29z"/>
	<path class="st12" d="M193.18,111.6c0-19.41,0-38.82,0-58.23c1.15,0.01,2.64-0.42,3.35,0.14c0.76,0.59,0.24,2.16,0.24,3.29
		c0.02,17.8,0,35.6,0.04,53.4c0,1.16-0.27,1.62-1.46,1.46C194.64,111.55,193.91,111.61,193.18,111.6z"/>
	<path class="st13" d="M213.73,139.16c0.01,2.2,0.01,4.4,0.02,6.6c-2.09,0.01-4.18,0.04-6.28,0.04c-14.56,0-29.13,0-43.69,0
		c-0.47,0-0.94,0.03-1.41,0.04c-4.19-0.01-8.37-0.05-12.56-0.03c-0.8,0-1.11-0.14-1.07-1.03c0.08-1.88,0.03-3.76,0.03-5.64
		c4.88-0.01,9.76-0.03,14.63-0.03c16.3,0,32.61,0,48.91,0C212.79,139.12,213.26,139.15,213.73,139.16z"/>
	<path class="st13" d="M111,145.76c-4.28,0.01-8.55,0.02-12.83,0.05c-0.62,0.01-0.8-0.17-0.79-0.79c0.04-1.71,0.04-3.42,0-5.13
		c-0.01-0.62,0.17-0.79,0.79-0.79c4.28,0.04,8.55,0.04,12.83,0.05C111,141.36,111,143.56,111,145.76z"/>
	<path class="st9" d="M111,145.76c0-2.2,0-4.4,0-6.6c1.15,0.01,2.63-0.41,3.35,0.15c0.77,0.6,0.23,2.15,0.24,3.29
		c0.04,3.26,0.01,3.26-3.21,3.2C111.25,145.79,111.12,145.77,111,145.76z"/>
	<path class="st10" d="M189.88,176.61c0.01-1.06-0.37-2.44,0.15-3.1c0.56-0.7,2-0.21,3.05-0.21c6.5-0.02,13,0.01,19.5-0.04
		c0.96-0.01,1.21,0.22,1.18,1.18c-0.07,2.18-0.01,2.18-2.21,2.18C204.32,176.61,197.1,176.61,189.88,176.61L189.88,176.61z"/>
	<path class="st10" d="M213.74,166.3c2.01,0.01,4.02,0.06,6.03,0.03c0.72-0.01,0.92,0.19,0.93,0.92c0.02,2.68,0.05,2.68-2.6,2.7
		c-0.26,0-0.51,0.03-0.77,0.04c-5.35-0.01-10.69-0.06-16.04-0.02c-0.95,0.01-1.22-0.21-1.19-1.18c0.07-2.44,0.01-2.43,2.47-2.44
		C206.29,166.34,210.01,166.32,213.74,166.3z"/>
</g>
</svg>