<?xml version="1.0" standalone="no"?>
<!DOCTYPE svg PUBLIC "-//W3C//DTD SVG 20010904//EN"
 "http://www.w3.org/TR/2001/REC-SVG-20010904/DTD/svg10.dtd">
<svg version="1.0" xmlns="http://www.w3.org/2000/svg"
 viewBox="0 0 2600.000000 2600.000000"
 preserveAspectRatio="xMidYMid meet">
<metadata>
Created by potrace 1.15, written by Peter Selinger 2001-2017
</metadata>
<g transform="translate(0.000000,2600.000000) scale(0.100000,-0.100000)"
fill="#000000" stroke="none">
<path d="M13560 18171 c-250 -34 -467 -217 -543 -456 -18 -56 -22 -94 -22
-193 0 -100 -3 -123 -15 -126 -8 -3 -42 -10 -75 -16 -98 -19 -312 -77 -435
-118 -427 -145 -835 -374 -1170 -657 -169 -143 -239 -214 -246 -249 -7 -42 18
-93 52 -106 16 -6 963 -10 2541 -10 2355 0 2517 1 2544 17 38 23 55 74 39 113
-12 30 -184 190 -315 295 -426 340 -950 589 -1485 705 -52 11 -104 22 -115 25
-20 4 -21 10 -17 98 12 261 -137 507 -373 618 -111 52 -252 75 -365 60z m284
-234 c204 -101 307 -318 249 -522 -33 -115 -17 -165 56 -185 20 -5 98 -21 174
-35 436 -81 887 -270 1272 -533 108 -74 295 -218 295 -227 0 -3 -1013 -5
-2251 -5 l-2252 0 67 55 c410 335 916 581 1431 694 77 17 169 35 205 41 80 14
105 29 119 73 9 27 8 42 -5 78 -22 63 -29 185 -14 250 39 163 158 290 325 345
25 9 78 13 146 11 100 -2 110 -4 183 -40z"/>
<path d="M6035 16920 c-49 -5 -135 -16 -190 -25 -55 -10 -147 -19 -205 -20
-112 -2 -164 -17 -209 -58 -75 -69 -83 -249 -12 -286 10 -6 60 -15 110 -21
337 -38 601 -259 818 -686 270 -528 442 -1297 543 -2414 11 -124 25 -256 31
-295 102 -647 494 -1141 1151 -1455 137 -65 322 -134 473 -176 55 -15 101 -28
103 -29 1 -1 20 -73 42 -161 188 -746 558 -1414 1080 -1948 254 -259 491 -452
744 -603 l131 -78 3075 0 3075 0 75 44 c290 170 638 457 882 727 482 535 804
1135 990 1842 l43 164 126 48 c718 273 1279 838 1543 1553 221 597 213 1282
-21 1877 -195 496 -556 944 -998 1237 -328 218 -691 358 -1090 419 -171 27
-593 27 -750 1 -403 -67 -731 -194 -1062 -409 l-122 -79 -69 20 -70 21 -2573
-2 -2574 -3 -145 -49 c-421 -142 -783 -336 -1140 -612 -142 -110 -448 -413
-560 -554 -180 -228 -351 -513 -448 -748 l-22 -54 -37 23 c-250 148 -524 425
-828 833 -215 289 -362 514 -720 1106 -124 206 -252 410 -283 453 -68 94 -183
207 -272 265 -163 106 -394 154 -635 132z m385 -225 c161 -55 290 -165 413
-352 35 -54 150 -240 254 -413 322 -534 503 -813 705 -1085 349 -470 696 -798
990 -935 104 -49 143 -31 188 85 79 206 235 489 375 680 399 548 1007 986
1684 1215 l147 50 2555 -2 2554 -3 110 -39 c138 -49 658 -300 785 -378 354
-221 690 -535 926 -865 485 -678 684 -1540 588 -2553 -94 -992 -452 -1833
-1080 -2532 -228 -253 -576 -542 -815 -677 l-56 -31 -3027 0 -3027 0 -92 56
c-345 210 -683 516 -967 874 -366 463 -636 1036 -780 1654 -20 86 -39 145 -51
157 -10 10 -37 23 -61 29 -267 67 -430 125 -633 225 -560 274 -889 691 -989
1255 -8 47 -27 213 -41 370 -88 973 -249 1742 -474 2265 -210 487 -499 802
-836 911 -38 13 -66 23 -61 24 11 0 246 37 286 44 14 2 97 3 185 2 146 -3 167
-5 245 -31z m11786 -296 c456 -45 863 -204 1240 -485 537 -401 896 -1037 964
-1708 18 -173 8 -497 -20 -655 -91 -516 -327 -971 -695 -1336 -213 -211 -484
-394 -754 -510 -81 -34 -83 -35 -77 -13 30 112 66 354 66 452 0 42 2 45 48 72
345 200 623 495 799 846 500 998 86 2214 -922 2709 -374 183 -809 248 -1210
179 -140 -24 -325 -77 -440 -127 l-90 -39 -150 76 c-82 42 -190 92 -240 112
l-89 36 59 38 c217 139 519 260 787 314 226 47 499 61 724 39z m4 -630 c116
-13 270 -51 387 -95 618 -231 1063 -762 1174 -1403 122 -711 -180 -1412 -787
-1822 -40 -27 -75 -49 -77 -49 -1 0 -1 67 1 150 17 603 -124 1263 -378 1770
-166 330 -348 579 -624 855 -180 179 -293 275 -466 397 -58 40 -107 77 -108
83 -4 11 97 47 228 79 204 52 412 63 650 35z"/>
</g>
</svg>
