<svg width="1920" height="197" viewBox="0 0 1920 197" fill="none" xmlns="http://www.w3.org/2000/svg"><path d="M0 29.5L64.3 35.0484C128.6 41.0156 257.2 51.4844 385.8 63C514.4 74.5156 643 84.9844 771.6 68.5484C900.2 51.4844 1028.8 7.5156 1157.4 1.54841C1286 -4.00002 1414.6 29.5 1543.2 51.7984C1671.8 74.5156 1800.4 84.9843 1864.7 90.9515L1929 96.5V197H1864.7C1800.4 197 1671.8 197 1543.2 197C1414.6 197 1286 197 1157.4 197C1028.8 197 900.2 197 771.6 197C643 197 514.4 197 385.8 197C257.2 197 128.6 197 64.3 197H0V29.5Z" fill="#0F3B26"/></svg>
