<svg width="294" height="272" viewBox="0 0 294 272" fill="none" xmlns="http://www.w3.org/2000/svg">
<path d="M89.109 156.168C85.9232 199.069 153.348 228.509 190 190.372C189.594 190.766 149.694 194.69 128.619 168.381C103.273 136.748 124.848 115.854 124.668 112.027C122.568 111.294 91.389 125.465 89.109 156.168Z" fill="#F9DEAC" stroke="#F9DEAC" stroke-miterlimit="10"/>
<path d="M120.139 4.93358L122.867 8.17248C123.28 8.66137 123.952 8.85238 124.564 8.63849L128.614 7.23291C130.288 6.38499 131.304 7.95861 130.326 9.66972L128.087 12.4274C127.621 13.0079 127.628 13.8329 128.102 14.3982L130.357 17.0795C131.541 18.9587 131.121 20.2649 128.836 19.585L124.212 18.5538C123.639 18.4239 123.043 18.6302 122.668 19.0885L119.688 22.7628C118.167 24.6344 116.684 24.4205 116.952 21.8615C116.96 21.7851 116.937 21.701 116.937 21.617L117.036 18.233C117.059 17.492 116.547 16.835 115.821 16.6746L112.351 15.9031C110.67 15.3531 110.494 13.7184 112.183 12.9316L116.234 11.526C116.837 11.3121 117.258 10.7468 117.273 10.1051L117.395 5.87316C117.563 3.94815 118.756 3.29122 120.139 4.93358Z" fill="#F9DEAC" stroke="#E2D7DD" stroke-miterlimit="10"/>
<path d="M250.413 146.782L250.5 150.831C250.515 151.445 250.93 151.986 251.549 152.198L255.685 153.579C257.572 153.952 257.361 155.735 255.481 156.422L251.917 157.131C251.173 157.277 250.648 157.898 250.664 158.607L250.735 161.962C250.468 164.074 249.293 164.797 247.899 162.912L244.876 159.367C244.5 158.929 243.889 158.724 243.301 158.841L238.555 159.784C236.135 160.266 235.093 159.214 236.949 157.474C237.004 157.423 237.043 157.343 237.098 157.284L239.354 154.821C239.847 154.281 239.863 153.491 239.393 152.936L237.129 150.276C236.143 148.858 237.059 147.535 238.907 147.959L243.043 149.34C243.662 149.545 244.359 149.377 244.782 148.909L247.609 145.832C248.996 144.502 250.374 144.729 250.413 146.782Z" fill="#F9DEAC" stroke="#E2D7DD" stroke-miterlimit="10"/>
<path d="M151.075 28.0135C151.075 27.9911 151.036 27.9986 151.036 28.0209C152.565 56.8381 146.956 53.9326 140.005 58.8199C139.726 59.0136 151.471 55.5269 153.751 74.942C153.899 74.9941 154.178 75.0165 154.333 74.9867C154.333 59.7288 165 55.4747 165 55.4747C155.024 53.6047 152.417 53.3663 151.075 28.0135Z" fill="#F9DEAC" stroke="#E2D7DD" stroke-miterlimit="10"/>
<path d="M75.3361 1.00762C75.281 0.962865 75.0528 1.12697 75.0528 1.19411C75.0528 4.81943 73.676 8.10165 70.0018 10.3768C69.8759 10.4514 76.4926 9.95904 76.4926 15.9416C76.4926 16.0087 76.7837 16.0236 76.768 15.9565C75.4147 11.5405 82 9.03406 82 9.03406C77.539 8.42984 78.3415 3.58861 75.3361 1.00762Z" fill="#F9DEAC" stroke="#E2D7DD" stroke-miterlimit="10"/>
<path d="M153.139 231.937L155.867 235.175C156.28 235.664 156.952 235.855 157.564 235.641L161.614 234.236C163.288 233.388 164.304 234.962 163.326 236.672L161.087 239.43C160.621 240.01 160.628 240.835 161.102 241.4L163.357 244.081C164.541 245.96 164.121 247.266 161.836 246.586L157.212 245.555C156.639 245.425 156.043 245.631 155.668 246.089L152.688 249.763C151.167 251.634 149.684 251.42 149.952 248.862C149.96 248.786 149.937 248.701 149.937 248.617L150.036 245.234C150.059 244.493 149.547 243.836 148.821 243.676L145.351 242.905C143.67 242.355 143.494 240.72 145.183 239.926L149.234 238.521C149.837 238.307 150.258 237.742 150.273 237.1L150.395 232.869C150.563 230.952 151.756 230.287 153.139 231.937Z" fill="#F9DEAC" stroke="#E2D7DD" stroke-miterlimit="10"/>
<path d="M51.1388 155.937L53.8672 159.175C54.2799 159.664 54.9524 159.855 55.5638 159.641L59.6143 158.236C61.288 157.388 62.3044 158.962 61.3262 160.672L59.087 163.43C58.6208 164.01 58.6284 164.835 59.1023 165.4L61.3568 168.081C62.5413 169.96 62.121 171.266 59.8359 170.586L55.2123 169.555C54.6391 169.425 54.043 169.631 53.6685 170.089L50.6879 173.763C49.1671 175.634 47.6845 175.42 47.952 172.862C47.9596 172.786 47.9367 172.701 47.9367 172.617L48.036 169.234C48.059 168.493 47.5469 167.836 46.8209 167.676L43.3512 166.905C41.6699 166.355 41.4941 164.72 43.1831 163.926L47.2336 162.521C47.8373 162.307 48.2577 161.742 48.2729 161.1L48.3952 156.869C48.5634 154.952 49.7556 154.287 51.1388 155.937Z" fill="#F9DEAC" stroke="#E2D7DD" stroke-miterlimit="10"/>
<path d="M82.075 199.014C82.075 198.991 82.0363 198.999 82.0363 199.021C83.5645 228.452 77.9557 225.484 71.0049 230.476C70.7256 230.673 82.4707 227.113 84.7514 246.941C84.8988 246.994 85.1781 247.017 85.3333 246.986C85.3333 231.404 96 227.059 96 227.059C86.0237 225.157 83.4171 224.914 82.075 199.014Z" fill="#F9DEAC" stroke="#E2D7DD" stroke-miterlimit="10"/>
<path d="M224.55 199.003C224.55 198.996 224.535 199.003 224.535 199.003C225.023 204.524 223.227 203.969 221.001 204.899C220.914 204.937 224.666 204.269 225.401 207.989C225.444 207.997 225.539 208.004 225.59 207.997C225.59 205.072 229 204.261 229 204.261C225.815 203.901 224.979 203.856 224.55 199.003Z" fill="#F9DEAC" stroke="#E2D7DD" stroke-miterlimit="10"/>
<path d="M6.33607 172.008C6.28099 171.963 6.05283 172.127 6.05283 172.194C6.05283 175.819 4.67598 179.102 1.00177 181.377C0.875891 181.451 7.49262 180.959 7.49262 186.942C7.49262 187.009 7.78373 187.024 7.76799 186.956C6.41475 182.54 13 180.034 13 180.034C8.53115 179.422 9.34152 174.581 6.33607 172.008Z" fill="#F9DEAC" stroke="#E2D7DD" stroke-miterlimit="10"/>
<path opacity="0.4784" d="M87.5 232C134.72 232 173 196.183 173 152C173 107.817 134.72 72 87.5 72C40.2797 72 2 107.817 2 152C2 196.183 40.2797 232 87.5 232Z" fill="#F9CEDF" stroke="#DACCE8" stroke-miterlimit="10"/>
<path d="M41.1388 66.8869L43.8672 69.9639C44.2799 70.4283 44.9524 70.6097 45.5638 70.4066L49.6143 69.0712C51.288 68.2657 52.3044 69.7607 51.3262 71.3862L49.087 74.006C48.6208 74.5575 48.6284 75.3413 49.1022 75.8783L51.3568 78.4255C52.5413 80.2107 52.121 81.4516 49.8359 80.8058L45.2122 79.8261C44.6391 79.7027 44.043 79.8987 43.6685 80.3341L40.6879 83.8247C39.1671 85.6027 37.6845 85.3995 37.9519 82.9684C37.9596 82.8958 37.9367 82.816 37.9367 82.7362L38.036 79.5213C38.0589 78.8174 37.5469 78.1933 36.8209 78.0409L33.3512 77.3079C31.6699 76.7854 31.4941 75.2324 33.1831 74.485L37.2336 73.1497C37.8373 72.9465 38.2577 72.4095 38.2729 71.7999L38.3952 67.7795C38.5633 65.9508 39.7556 65.3266 41.1388 66.8869Z" fill="#F9DEAC" stroke="#E2D7DD" stroke-miterlimit="10"/>
<path d="M278.075 223.014C278.075 222.991 278.036 222.999 278.036 223.021C279.564 252.452 273.956 249.484 267.005 254.476C266.726 254.673 278.471 251.113 280.751 270.941C280.899 270.994 281.178 271.017 281.333 270.986C281.333 255.404 292 251.059 292 251.059C282.024 249.157 279.417 248.914 278.075 223.014Z" fill="#F9DEAC" stroke="#E2D7DD" stroke-miterlimit="10"/>
</svg>
