<svg width="470" height="313" viewBox="0 0 470 313" fill="none" xmlns="http://www.w3.org/2000/svg">
<path d="M88.0504 34.8334C88.0504 34.8215 88.0257 34.8334 88.0257 34.8334C88.8538 43.6189 85.8007 42.7356 82.0182 44.2157C81.8698 44.2754 88.2482 43.213 89.4966 49.1336C89.5708 49.1456 89.7315 49.1575 89.818 49.1456C89.818 44.4903 95.6154 43.2011 95.6154 43.2011C90.2012 42.6281 88.7797 42.5565 88.0504 34.8334Z" fill="#F9DEAC" stroke="#E2D7DD" stroke-miterlimit="10"/>
<path opacity="0.4784" d="M226.717 190.858C273.071 190.858 310.649 153.449 310.649 107.301C310.649 61.1539 273.071 23.7441 226.717 23.7441C180.363 23.7441 142.785 61.1539 142.785 107.301C142.785 153.449 180.363 190.858 226.717 190.858Z" fill="#F9CEDF" stroke="#DACCE8" stroke-miterlimit="10"/>
<path opacity="0.4784" d="M124.231 312.1C188.049 312.1 239.783 263.077 239.783 202.604C239.783 142.131 188.049 93.1084 124.231 93.1084C60.4139 93.1084 8.67969 142.131 8.67969 202.604C8.67969 263.077 60.4139 312.1 124.231 312.1Z" fill="#E0FEFF" stroke="#DACCE8" stroke-miterlimit="10"/>
<path d="M92.4637 140.055L92.5997 146.668C92.6244 147.671 93.2796 148.554 94.2561 148.9L100.783 151.157C103.762 151.765 103.428 154.678 100.461 155.8L94.8371 156.958C93.6627 157.197 92.8345 158.211 92.8593 159.369L92.9705 164.848C92.5502 168.298 90.6961 169.479 88.4958 166.4L83.7244 160.61C83.1311 159.894 82.1669 159.56 81.2398 159.751L73.749 161.291C69.9294 162.079 68.2854 160.36 71.215 157.519C71.3015 157.435 71.3633 157.304 71.4498 157.208L75.0098 153.186C75.7886 152.302 75.8133 151.013 75.0716 150.106L71.4993 145.761C69.9418 143.445 71.388 141.285 74.3052 141.977L80.8319 144.233C81.8084 144.567 82.9086 144.293 83.5761 143.529L88.0384 138.504C90.214 136.331 92.3895 136.701 92.4637 140.055Z" fill="#F9DEAC" stroke="#E2D7DD" stroke-miterlimit="10"/>
<path d="M6.8629 112.183C6.8629 112.171 6.83817 112.183 6.83817 112.183C7.66637 120.968 4.61317 120.085 0.830671 121.565C0.682337 121.625 7.06067 120.563 8.30915 126.483C8.38331 126.495 8.544 126.507 8.63053 126.495C8.63053 121.84 14.4279 120.551 14.4279 120.551C9.01373 119.99 7.5922 119.918 6.8629 112.183Z" fill="#F9DEAC" stroke="#E2D7DD" stroke-miterlimit="10"/>
<path d="M172.662 9.89762L177.075 14.9588C177.743 15.7227 178.831 16.0212 179.819 15.6869L186.371 13.4906C189.078 12.1656 190.722 14.6245 189.14 17.2984L185.518 21.6075C184.764 22.5147 184.776 23.8039 185.543 24.6872L189.189 28.877C191.105 31.8134 190.425 33.8546 186.729 32.7923L179.251 31.1808C178.324 30.9779 177.36 31.3002 176.754 32.0164L171.933 37.7579C169.473 40.6824 167.075 40.3482 167.508 36.3494C167.52 36.23 167.483 36.0987 167.483 35.9674L167.644 30.6795C167.681 29.5216 166.853 28.495 165.678 28.2444L160.066 27.0387C157.347 26.1793 157.063 23.6249 159.794 22.3954L166.346 20.199C167.322 19.8648 168.002 18.9815 168.027 17.9788L168.225 11.3658C168.497 8.35776 170.425 7.31929 172.662 9.89762Z" fill="#F9DEAC" stroke="#E2D7DD" stroke-miterlimit="10"/>
<path d="M124.825 82.9385C124.739 82.8668 124.38 83.1295 124.38 83.2369C124.38 89.0381 122.217 94.2903 116.444 97.931C116.246 98.0504 126.642 97.2625 126.642 106.836C126.642 106.943 127.099 106.967 127.075 106.86C124.949 99.7931 135.295 95.7824 135.295 95.7824C128.286 94.8035 129.547 87.0686 124.825 82.9385Z" fill="#F9DEAC" stroke="#E2D7DD" stroke-miterlimit="10"/>
<path d="M30.7469 271.911L30.8829 278.524C30.9076 279.527 31.5628 280.41 32.5393 280.756L39.0659 283.013C42.045 283.621 41.7112 286.534 38.7446 287.656L33.1203 288.814C31.9459 289.052 31.1177 290.067 31.1425 291.225L31.2537 296.704C30.8335 300.154 28.9793 301.335 26.779 298.256L22.0076 292.466C21.4143 291.75 20.4501 291.416 19.523 291.607L12.0322 293.147C8.21262 293.935 6.56859 292.216 9.49817 289.375C9.5847 289.291 9.64651 289.16 9.73304 289.064L13.293 285.042C14.0718 284.158 14.0965 282.869 13.3548 281.962L9.78247 277.617C8.22497 275.301 9.67123 273.141 12.5884 273.833L19.1151 276.089C20.0916 276.423 21.1918 276.149 21.8593 275.385L26.3216 270.36C28.4972 268.187 30.6728 268.557 30.7469 271.911Z" fill="#F9DEAC" stroke="#E2D7DD" stroke-miterlimit="10"/>
<path d="M453.747 129.911L453.883 136.524C453.908 137.527 454.563 138.41 455.539 138.756L462.066 141.013C465.045 141.621 464.711 144.534 461.745 145.656L456.12 146.814C454.946 147.052 454.118 148.067 454.142 149.225L454.254 154.704C453.833 158.154 451.979 159.335 449.779 156.256L445.008 150.466C444.414 149.75 443.45 149.416 442.523 149.607L435.032 151.147C431.213 151.935 429.569 150.216 432.498 147.375C432.585 147.291 432.647 147.16 432.733 147.064L436.293 143.042C437.072 142.158 437.096 140.869 436.355 139.962L432.782 135.617C431.225 133.301 432.671 131.141 435.588 131.833L442.115 134.089C443.092 134.423 444.192 134.149 444.859 133.385L449.322 128.36C451.497 126.187 453.673 126.557 453.747 129.911Z" fill="#F9DEAC" stroke="#E2D7DD" stroke-miterlimit="10"/>
<path d="M272.998 1.27923C272.998 1.26729 272.973 1.27923 272.973 1.27923C273.801 10.0647 270.748 9.18133 266.965 10.6615C266.817 10.7212 273.195 9.65879 274.444 15.5794C274.518 15.5913 274.679 15.6033 274.765 15.5914C274.765 10.936 280.563 9.64689 280.563 9.64689C275.148 9.07393 273.727 9.00229 272.998 1.27923Z" fill="#F9DEAC" stroke="#E2D7DD" stroke-miterlimit="10"/>
<path d="M327.035 49.0053C327.035 48.9934 327.01 49.0053 327.01 49.0053C327.838 57.7907 324.785 56.9074 321.003 58.3876C320.854 58.4473 327.233 57.3849 328.481 63.3055C328.555 63.3174 328.716 63.3294 328.802 63.3174C328.802 58.6621 334.6 57.373 334.6 57.373C329.186 56.8119 327.764 56.7403 327.035 49.0053Z" fill="#F9DEAC" stroke="#E2D7DD" stroke-miterlimit="10"/>
<path d="M229.781 270.464L234.194 275.525C234.862 276.289 235.95 276.588 236.939 276.253L243.49 274.057C246.197 272.732 247.841 275.191 246.259 277.865L242.637 282.174C241.883 283.081 241.895 284.37 242.662 285.254L246.308 289.443C248.224 292.38 247.544 294.421 243.848 293.359L236.37 291.747C235.443 291.544 234.479 291.867 233.873 292.583L229.052 298.324C226.592 301.249 224.194 300.915 224.627 296.916C224.639 296.796 224.602 296.665 224.602 296.534L224.763 291.246C224.8 290.088 223.972 289.061 222.797 288.811L217.186 287.605C214.466 286.746 214.182 284.191 216.914 282.962L223.465 280.765C224.441 280.431 225.121 279.548 225.146 278.545L225.344 271.932C225.616 268.924 227.544 267.886 229.781 270.464Z" fill="#F9DEAC" stroke="#E2D7DD" stroke-miterlimit="10"/>
<path d="M326.781 138.464L331.194 143.525C331.862 144.289 332.95 144.588 333.939 144.253L340.49 142.057C343.197 140.732 344.841 143.191 343.259 145.865L339.637 150.174C338.883 151.081 338.895 152.37 339.662 153.254L343.308 157.443C345.224 160.38 344.544 162.421 340.848 161.359L333.37 159.747C332.443 159.544 331.479 159.867 330.873 160.583L326.052 166.324C323.592 169.249 321.194 168.915 321.627 164.916C321.639 164.796 321.602 164.665 321.602 164.534L321.763 159.246C321.8 158.088 320.972 157.061 319.797 156.811L314.186 155.605C311.466 154.746 311.182 152.191 313.914 150.962L320.465 148.765C321.441 148.431 322.121 147.548 322.146 146.545L322.344 139.932C322.616 136.924 324.544 135.886 326.781 138.464Z" fill="#F9DEAC" stroke="#E2D7DD" stroke-miterlimit="10"/>
<path d="M445.647 8.02162C445.647 7.98581 445.585 7.99774 445.585 8.03355C448.02 54.2048 439.083 49.5495 428.008 57.38C427.563 57.6904 446.278 52.104 449.912 83.2111C450.147 83.2946 450.592 83.3304 450.839 83.2827C450.839 58.8363 467.835 52.0204 467.835 52.0204C451.939 49.0362 447.786 48.6542 445.647 8.02162Z" fill="#F9DEAC" stroke="#E2D7DD" stroke-miterlimit="10"/>
<path d="M381.384 88.0122C381.297 87.9406 380.939 88.2032 380.939 88.3106C380.939 94.1119 378.775 99.364 373.003 103.005C372.805 103.124 383.201 102.336 383.201 111.91C383.201 112.017 383.658 112.041 383.633 111.933C381.507 104.867 391.853 100.856 391.853 100.856C384.845 99.8773 386.106 92.1304 381.384 88.0122Z" fill="#F9DEAC" stroke="#E2D7DD" stroke-miterlimit="10"/>
</svg>
