<svg width="413" height="606" viewBox="0 0 413 606" fill="none" xmlns="http://www.w3.org/2000/svg">
<path d="M84.5735 73.9811L88.9864 79.0423C89.6539 79.8062 90.7418 80.1046 91.7307 79.7704L98.282 77.5741C100.989 76.2491 102.633 78.7081 101.051 81.3819L97.4291 85.691C96.6751 86.5982 96.6875 87.8874 97.4539 88.7707L101.1 92.9605C103.016 95.8969 102.336 97.9381 98.6405 96.8758L91.1619 95.2643C90.2349 95.0614 89.2707 95.3837 88.665 96.0999L83.8443 101.841C81.3844 104.766 78.9862 104.432 79.4189 100.433C79.4312 100.314 79.3941 100.182 79.3941 100.051L79.5548 94.763C79.5919 93.6051 78.7638 92.5785 77.5895 92.3279L71.9775 91.1222C69.258 90.2628 68.9738 87.7084 71.7056 86.4789L78.257 84.2825C79.2335 83.9483 79.9134 83.0649 79.9381 82.0623L80.1359 75.4493C80.4079 72.4413 82.3362 71.4028 84.5735 73.9811Z" fill="#F9DEAC" stroke="#E2D7DD" stroke-miterlimit="10"/>
<path d="M153.782 295.464L158.194 300.525C158.862 301.289 159.95 301.588 160.939 301.253L167.49 299.057C170.197 297.732 171.841 300.191 170.259 302.865L166.637 307.174C165.883 308.081 165.895 309.37 166.662 310.254L170.308 314.443C172.224 317.38 171.544 319.421 167.848 318.359L160.37 316.747C159.443 316.544 158.479 316.867 157.873 317.583L153.052 323.324C150.592 326.249 148.194 325.915 148.627 321.916C148.639 321.796 148.602 321.665 148.602 321.534L148.763 316.246C148.8 315.088 147.972 314.061 146.797 313.811L141.185 312.605C138.466 311.746 138.182 309.191 140.914 307.962L147.465 305.765C148.442 305.431 149.121 304.548 149.146 303.545L149.344 296.932C149.616 293.924 151.544 292.886 153.782 295.464Z" fill="#F9DEAC" stroke="#E2D7DD" stroke-miterlimit="10"/>
<path d="M290.918 297.532L291.054 304.145C291.079 305.148 291.734 306.031 292.71 306.377L299.237 308.633C302.216 309.242 301.882 312.155 298.915 313.277L293.291 314.435C292.117 314.673 291.289 315.688 291.313 316.846L291.425 322.325C291.004 325.774 289.15 326.956 286.95 323.876L282.178 318.087C281.585 317.371 280.621 317.037 279.694 317.228L272.203 318.768C268.384 319.555 266.739 317.837 269.669 314.996C269.756 314.912 269.817 314.781 269.904 314.685L273.476 310.663C274.255 309.779 274.28 308.49 273.538 307.583L269.966 303.238C268.408 300.922 269.854 298.762 272.772 299.454L279.298 301.71C280.275 302.044 281.375 301.77 282.043 301.006L286.505 295.98C288.68 293.808 290.856 294.166 290.918 297.532Z" fill="#F9DEAC" stroke="#E2D7DD" stroke-miterlimit="10"/>
<path d="M13.0155 67.3921C12.929 67.3205 12.5705 67.5831 12.5705 67.6905C12.5705 73.4917 10.4073 78.7439 4.63462 82.3846C4.43684 82.504 14.8325 81.7162 14.8325 91.2894C14.8325 91.3968 15.2899 91.4207 15.2651 91.3133C13.139 84.2467 23.4853 80.236 23.4853 80.236C16.4766 79.2572 17.7374 71.5103 13.0155 67.3921Z" fill="#F9DEAC" stroke="#E2D7DD" stroke-miterlimit="10"/>
<path d="M99.5804 353.3L103.993 358.362C104.661 359.126 105.748 359.424 106.737 359.09L113.289 356.893C115.996 355.568 117.64 358.027 116.058 360.701L112.436 365.01C111.682 365.918 111.694 367.207 112.461 368.09L116.107 372.28C118.023 375.216 117.343 377.257 113.647 376.195L106.169 374.584C105.242 374.381 104.278 374.703 103.672 375.419L98.8511 381.161C96.3912 384.085 93.9931 383.751 94.4257 379.752C94.4381 379.633 94.401 379.502 94.401 379.37L94.5617 374.082C94.5988 372.924 93.7706 371.898 92.5963 371.647L86.9843 370.442C84.2649 369.582 83.9806 367.028 86.7124 365.798L93.2639 363.602C94.2404 363.268 94.9202 362.384 94.9449 361.382L95.1428 354.769C95.4147 351.761 97.343 350.722 99.5804 353.3Z" fill="#F9DEAC" stroke="#E2D7DD" stroke-miterlimit="10"/>
<path d="M305.924 576.851L306.06 583.464C306.084 584.467 306.74 585.35 307.716 585.697L314.243 587.953C317.222 588.561 316.888 591.474 313.921 592.596L308.297 593.754C307.123 593.993 306.295 595.007 306.319 596.165L306.43 601.644C306.01 605.094 304.156 606.275 301.956 603.196L297.184 597.406C296.591 596.69 295.627 596.356 294.7 596.547L287.209 598.087C283.389 598.875 281.745 597.156 284.675 594.315C284.761 594.231 284.823 594.1 284.91 594.005L288.482 589.982C289.261 589.099 289.286 587.809 288.544 586.902L284.972 582.557C283.414 580.241 284.86 578.081 287.778 578.773L294.304 581.029C295.281 581.364 296.381 581.089 297.048 580.325L301.511 575.3C303.686 573.127 305.862 573.485 305.924 576.851Z" fill="#F9DEAC" stroke="#E2D7DD" stroke-miterlimit="10"/>
<path d="M260.274 441.632L264.687 446.694C265.354 447.458 266.442 447.756 267.431 447.422L273.982 445.225C276.689 443.9 278.333 446.359 276.751 449.033L273.129 453.342C272.375 454.25 272.388 455.539 273.154 456.422L276.801 460.612C278.716 463.548 278.037 465.59 274.341 464.527L266.862 462.916C265.935 462.713 264.971 463.035 264.365 463.751L259.544 469.493C257.085 472.417 254.686 472.083 255.119 468.084C255.131 467.965 255.094 467.834 255.094 467.702L255.255 462.414C255.292 461.256 254.464 460.23 253.29 459.979L247.678 458.774C244.958 457.914 244.674 455.36 247.406 454.13L253.957 451.934C254.934 451.6 255.614 450.716 255.638 449.714L255.836 443.101C256.108 440.093 258.036 439.054 260.274 441.632Z" fill="#F9DEAC" stroke="#E2D7DD" stroke-miterlimit="10"/>
<path d="M148.48 389.242C148.48 389.207 148.418 389.218 148.418 389.254C150.854 435.426 141.916 430.77 130.841 438.601C130.396 438.911 149.111 433.325 152.745 464.432C152.98 464.515 153.425 464.551 153.672 464.503C153.672 440.057 170.668 433.241 170.668 433.241C154.772 430.257 150.619 429.875 148.48 389.242Z" fill="#F9DEAC" stroke="#E2D7DD" stroke-miterlimit="10"/>
<path d="M153.647 104.022C153.647 103.986 153.585 103.998 153.585 104.034C156.021 150.205 147.083 145.55 136.008 153.38C135.563 153.69 154.278 148.104 157.912 179.211C158.147 179.295 158.592 179.33 158.839 179.283C158.839 154.836 175.835 148.02 175.835 148.02C159.939 145.036 155.786 144.654 153.647 104.022Z" fill="#F9DEAC" stroke="#E2D7DD" stroke-miterlimit="10"/>
<path d="M373.23 389.23C373.23 389.218 373.206 389.23 373.206 389.23C374.034 398.015 370.981 397.132 367.211 398.612C367.062 398.672 373.44 397.609 374.689 403.53C374.763 403.542 374.924 403.554 375.01 403.542C375.01 398.887 380.808 397.598 380.808 397.598C375.369 397.025 373.96 396.953 373.23 389.23Z" fill="#F9DEAC" stroke="#E2D7DD" stroke-miterlimit="10"/>
<path opacity="0.4784" d="M261.683 254.059C336.096 254.059 396.419 197.41 396.419 127.529C396.419 57.6491 336.096 1 261.683 1C187.271 1 126.947 57.6491 126.947 127.529C126.947 197.41 187.271 254.059 261.683 254.059Z" fill="#E0FEFF" stroke="#DACCE8" stroke-miterlimit="10"/>
<path opacity="0.4784" d="M135.736 372.053C210.149 372.053 270.472 315.404 270.472 245.524C270.472 175.644 210.149 118.995 135.736 118.995C61.3234 118.995 1 175.644 1 245.524C1 315.404 61.3234 372.053 135.736 372.053Z" fill="#F9CEDF" stroke="#DACCE8" stroke-miterlimit="10"/>
<path d="M349.167 355.592C370.664 363.346 393.506 354.621 400.185 336.104C406.864 317.587 394.852 296.29 373.355 288.536C351.858 280.782 329.016 289.507 322.337 308.024C315.658 326.541 327.67 347.838 349.167 355.592Z" fill="#F9DEAC" stroke="#E2D7DD" stroke-miterlimit="10"/>
<path d="M412.926 289.94C412.867 286.82 409.044 286.192 406.518 286.512C403.252 286.884 400.107 287.854 397.173 289.245C395.175 290.162 393.248 291.232 391.223 292.085C391.094 292.133 390.967 292.175 390.837 292.223C391.901 292.188 392.922 291.92 393.95 291.675C397.448 291.049 400.901 290.041 404.455 290.173C405.5 290.131 406.555 290.179 407.589 290.363C407.455 290.558 407.334 290.758 407.19 290.943C406.419 292.032 404.781 293.464 402.853 295.644C402.819 295.679 402.785 295.715 402.758 295.752C400.902 297.518 398.87 299.093 396.901 300.724C394.24 303.167 391.54 305.563 388.686 307.801C385.953 309.941 383.65 312.575 380.733 314.486C377.611 316.459 374.667 318.659 371.577 320.677C365.756 324.092 354.638 331.313 352.363 333.057C349.814 334.411 347.28 335.784 344.892 337.392C341.343 339.793 341.745 339.863 337.616 341.52C335.098 342.48 332.996 344.15 330.729 345.539C329.876 346.117 329.093 346.539 326.097 347.718C323.52 348.588 321.309 350.152 318.867 351.287C317.329 351.842 318.414 351.611 315.977 351.997C315.711 351.996 315.443 351.981 315.18 351.953C315.18 351.953 315.18 351.953 315.174 351.951C315.124 351.933 315.079 351.923 315.029 351.906C314.977 351.874 314.926 351.841 314.877 351.803C314.873 351.795 314.866 351.793 314.862 351.785C314.786 351.628 314.717 351.468 314.675 351.352C314.642 351.211 314.621 351.055 314.606 350.921C314.574 347.864 315.049 347.129 317.012 344.231C319.208 340.882 322.288 338.231 325.533 335.876C321.729 337.312 318.019 339.168 315.081 341.951C312.201 344.302 309.898 347.579 309.862 351.389C309.839 356.718 315.105 358.26 319.667 357.327C323.39 356.505 326.655 354.482 330.353 353.536C333.407 352.607 335.975 350.732 338.615 349.046C339.827 348.347 341.161 347.894 342.45 347.351C345.697 345.883 348.451 343.649 351.435 341.768C353.883 340.459 356.329 339.156 358.61 337.59C361.289 335.505 364.227 333.771 367.081 331.938C372.186 328.664 376.512 326.266 382.792 321.772C385.708 319.982 388.418 317.928 390.835 315.539C393.092 313.498 395.586 311.711 397.796 309.626C400.878 306.482 404.118 303.482 407.031 300.183C409.231 297.038 412.284 293.836 412.926 289.94Z" fill="#31343A"/>
</svg>
